<?xml version="1.0" encoding="iso-8859-1"?>
<!-- Generator: Adobe Illustrator 18.0.0, SVG Export Plug-In . SVG Version: 6.00 Build 0)  -->
<!DOCTYPE svg PUBLIC "-//W3C//DTD SVG 1.1//EN" "http://www.w3.org/Graphics/SVG/1.1/DTD/svg11.dtd">
<svg version="1.1" id="Capa_1" xmlns="http://www.w3.org/2000/svg" xmlns:xlink="http://www.w3.org/1999/xlink" x="0px" y="0px"
	 viewBox="0 0 60 60" style="enable-background:new 0 0 60 60;" xml:space="preserve">
<g>
	<path d="M59,16V2H1v14H0v37.259C0,55.873,2.127,58,4.741,58h50.518C57.873,58,60,55.873,60,53.259V16H59z M56.5,16l-5.18-6.906
		L56.414,4H57v12H56.5z M51,11.999L54,16h-3V11.999z M15,4h6h6h6h6h6h6h2.586l-4.292,4.292c-0.033,0.033-0.05,0.078-0.078,0.115
		c-0.037,0.049-0.074,0.095-0.101,0.15c-0.011,0.022-0.028,0.039-0.038,0.062c-0.017,0.04-0.016,0.083-0.027,0.125
		c-0.017,0.063-0.032,0.123-0.036,0.188C49.012,8.954,49,8.976,49,9v5v2H11v-2V9c0-0.024-0.012-0.046-0.013-0.069
		c-0.005-0.065-0.02-0.125-0.036-0.188c-0.011-0.042-0.01-0.085-0.027-0.125c-0.009-0.023-0.027-0.04-0.038-0.062
		c-0.027-0.054-0.064-0.1-0.101-0.149c-0.028-0.037-0.046-0.082-0.079-0.115L6.414,4H9H15z M6,16l3-4.001V16H6z M3,4h0.586
		L8.68,9.094L3.5,16H3V4z M58,53.259C58,54.771,56.771,56,55.259,56H4.741C3.229,56,2,54.771,2,53.259V18h56V53.259z"/>
	<path d="M42,24c-0.553,0-1,0.447-1,1v6c0,6.065-4.935,11-11,11s-11-4.935-11-11v-6c0-0.553-0.447-1-1-1s-1,0.447-1,1v6
		c0,7.168,5.832,13,13,13s13-5.832,13-13v-6C43,24.447,42.553,24,42,24z"/>
	<path d="M20,25c0,0.553,0.447,1,1,1s1-0.447,1-1c0-2.206-1.794-4-4-4s-4,1.794-4,4c0,0.553,0.447,1,1,1s1-0.447,1-1
		c0-1.103,0.897-2,2-2S20,23.897,20,25z"/>
	<path d="M42,21c-2.206,0-4,1.794-4,4c0,0.553,0.447,1,1,1s1-0.447,1-1c0-1.103,0.897-2,2-2s2,0.897,2,2c0,0.553,0.447,1,1,1
		s1-0.447,1-1C46,22.794,44.206,21,42,21z"/>
	<circle cx="24" cy="8" r="1"/>
	<circle cx="27" cy="5" r="1"/>
	<circle cx="27" cy="11" r="1"/>
	<circle cx="30" cy="8" r="1"/>
	<circle cx="18" cy="8" r="1"/>
	<circle cx="21" cy="5" r="1"/>
	<circle cx="21" cy="11" r="1"/>
	<circle cx="12" cy="8" r="1"/>
	<circle cx="9" cy="5" r="1"/>
	<circle cx="15" cy="5" r="1"/>
	<circle cx="15" cy="11" r="1"/>
	<circle cx="48" cy="8" r="1"/>
	<circle cx="51" cy="5" r="1"/>
	<circle cx="33" cy="5" r="1"/>
	<circle cx="33" cy="11" r="1"/>
	<circle cx="36" cy="8" r="1"/>
	<circle cx="42" cy="8" r="1"/>
	<circle cx="24" cy="14" r="1"/>
	<circle cx="30" cy="14" r="1"/>
	<circle cx="18" cy="14" r="1"/>
	<circle cx="12" cy="14" r="1"/>
	<circle cx="48" cy="14" r="1"/>
	<circle cx="36" cy="14" r="1"/>
	<circle cx="42" cy="14" r="1"/>
	<circle cx="39" cy="5" r="1"/>
	<circle cx="45" cy="5" r="1"/>
	<circle cx="39" cy="11" r="1"/>
	<circle cx="45" cy="11" r="1"/>
</g>
<g>
</g>
<g>
</g>
<g>
</g>
<g>
</g>
<g>
</g>
<g>
</g>
<g>
</g>
<g>
</g>
<g>
</g>
<g>
</g>
<g>
</g>
<g>
</g>
<g>
</g>
<g>
</g>
<g>
</g>
</svg>
