<?xml version="1.0" encoding="iso-8859-1"?>
<!-- Generator: Adobe Illustrator 16.0.0, SVG Export Plug-In . SVG Version: 6.00 Build 0)  -->
<!DOCTYPE svg PUBLIC "-//W3C//DTD SVG 1.1//EN" "http://www.w3.org/Graphics/SVG/1.1/DTD/svg11.dtd">
<svg version="1.1" id="Capa_1" xmlns="http://www.w3.org/2000/svg" xmlns:xlink="http://www.w3.org/1999/xlink" x="0px" y="0px"
	 width="292.9px" height="292.9px" viewBox="0 0 292.9 292.9" style="enable-background:new 0 0 292.9 292.9;" xml:space="preserve"
	>
<g>
	<g>
		<path d="M133.906,224.72c-2.136,0-3.876,1.729-3.876,3.879v60.423c0,2.139,1.735,3.879,3.876,3.879h23.91
			c2.145,0,3.884-1.74,3.884-3.879v-60.423c0-2.144-1.739-3.879-3.884-3.879h-2.26v13.894c0,5.349-4.342,9.693-9.694,9.693
			c-5.344,0-9.693-4.345-9.693-9.693V224.72H133.906z M137.14,272.225c0-3.578,2.895-6.473,6.47-6.473h4.518
			c3.573,0,6.467,2.895,6.467,6.473v5.81c0,3.573-2.895,6.462-6.467,6.462h-4.518c-3.575,0-6.47-2.889-6.47-6.462V272.225z"/>
		<path d="M145.862,245.723c3.93,0,7.112-3.185,7.112-7.109v-23.587c0-3.925-3.182-7.114-7.112-7.114
			c-3.922,0-7.109,3.189-7.109,7.114v23.587C138.758,242.543,141.939,245.723,145.862,245.723z"/>
		<path d="M119.516,49.208c-1.359-3.565-2.716-6.936-4.057-10.108l-14.657,6.183c1.269,3.006,2.556,6.204,3.84,9.582L119.516,49.208
			z"/>
		<path d="M111.026,29.111c-1.686-3.602-3.319-6.871-4.847-9.81l-14.105,7.353c1.432,2.755,2.959,5.828,4.544,9.207L111.026,29.111z
			"/>
		<path d="M122.897,124.966c0.526,3.363,1.007,6.794,1.465,10.294l15.772-2.033c-0.466-3.647-0.973-7.21-1.515-10.706
			L122.897,124.966z"/>
		<path d="M143.459,176.305c-0.093-3.646-0.238-7.25-0.422-10.802l-15.886,0.829c0.173,3.417,0.318,6.871,0.414,10.387
			L143.459,176.305z"/>
		<path d="M125.548,145.583c0.344,3.392,0.652,6.845,0.924,10.361l15.863-1.212c-0.28-3.65-0.604-7.236-0.963-10.763
			L125.548,145.583z"/>
		<path d="M126.561,69.765c-1.095-3.586-2.222-7.026-3.355-10.335l-15.048,5.16c1.083,3.153,2.152,6.431,3.203,9.835L126.561,69.765
			z"/>
		<path d="M81.874,9.466c0.021,0.025,2.084,2.837,5.266,8.256l13.711-8.065c-3.668-6.237-6.092-9.52-6.193-9.652L81.874,9.466z"/>
		<path d="M119.153,104.544c0.707,3.303,1.38,6.7,2.012,10.169l15.646-2.848c-0.663-3.632-1.367-7.179-2.105-10.636L119.153,104.544
			z"/>
		<path d="M132.303,90.671c-0.873-3.606-1.781-7.104-2.713-10.499l-15.34,4.215c0.891,3.239,1.755,6.587,2.586,10.038
			L132.303,90.671z"/>
		<path d="M211.026,9.466l-6.4-4.726L198.236,0c-0.099,0.132-2.517,3.42-6.193,9.652l13.712,8.065
			C208.944,12.309,211.005,9.491,211.026,9.466z"/>
		<path d="M149.438,176.305l15.896,0.414c0.094-3.516,0.238-6.97,0.415-10.387l-15.89-0.829
			C149.676,169.055,149.531,172.659,149.438,176.305z"/>
		<path d="M150.561,154.732l15.861,1.212c0.274-3.517,0.58-6.97,0.927-10.361l-15.824-1.618
			C151.164,147.496,150.841,151.082,150.561,154.732z"/>
		<path d="M200.825,26.654l-14.105-7.353c-1.522,2.939-3.158,6.208-4.847,9.81l14.411,6.75
			C197.863,32.477,199.391,29.401,200.825,26.654z"/>
		<path d="M170,124.966l-15.724-2.444c-0.546,3.496-1.049,7.063-1.515,10.706l15.772,2.033
			C168.99,131.76,169.477,128.324,170,124.966z"/>
		<path d="M192.095,45.277l-14.654-6.183c-1.346,3.177-2.703,6.542-4.06,10.107l14.872,5.652
			C189.547,51.48,190.826,48.289,192.095,45.277z"/>
		<path d="M158.188,101.229c-0.735,3.457-1.439,6.998-2.103,10.636l15.648,2.848c0.632-3.469,1.305-6.866,2.009-10.169
			L158.188,101.229z"/>
		<path d="M173.335,221.645c0-9.445-3.103-17.994-8.104-24.172c-0.052-2.744-0.077-5.447-0.077-8.14l0.005-2.165l-15.907-0.108
			v0.782c-1.113-0.176-2.237-0.29-3.389-0.29c-0.748,0-1.478,0.072-2.216,0.134v-0.631l-15.907,0.113l0.005,2.16
			c0,2.252-0.031,4.53-0.062,6.809c-5.681,6.245-9.284,15.338-9.284,25.508c0,10.035,3.492,19.045,9.043,25.284v-18.335
			c0-3.562,2.902-6.473,6.465-6.473h2.263v-7.104c0-5.344,4.35-9.694,9.693-9.694c5.352,0,9.694,4.351,9.694,9.694v7.104h2.26
			c3.568,0,6.473,2.91,6.473,6.473v18.335C169.839,240.699,173.335,231.685,173.335,221.645z"/>
		<path d="M184.742,64.584l-15.048-5.16c-1.14,3.309-2.263,6.75-3.355,10.336l15.197,4.66
			C182.588,71.016,183.654,67.737,184.742,64.584z"/>
		<path d="M178.647,84.383l-15.343-4.215c-0.933,3.399-1.839,6.897-2.714,10.498l15.462,3.749
			C176.892,90.975,177.757,87.627,178.647,84.383z"/>
	</g>
</g>
<g>
</g>
<g>
</g>
<g>
</g>
<g>
</g>
<g>
</g>
<g>
</g>
<g>
</g>
<g>
</g>
<g>
</g>
<g>
</g>
<g>
</g>
<g>
</g>
<g>
</g>
<g>
</g>
<g>
</g>
</svg>
