<svg height="512pt" viewBox="-64 0 512 512" width="512pt" xmlns="http://www.w3.org/2000/svg"><g fill-rule="evenodd"><path d="m374.445312 0h-260.425781c-.113281 0-.222656.0117188-.335937.015625-.113282.0039062-.226563.0117188-.339844.0195312-.421875.0273438-.84375.0742188-1.257812.1562498-.007813 0-.015626 0-.023438.003906-.421875.082032-.832031.203126-1.238281.339844-.105469.035156-.210938.074219-.3125.113282-.382813.140624-.761719.304687-1.125.492187-.023438.011719-.042969.019531-.066407.03125-.382812.203125-.746093.441406-1.097656.691406-.089844.066407-.175781.128907-.265625.195313-.351562.269531-.691406.554687-1.007812.871094l-104.019531 104.015624c-.316407.316407-.597657.65625-.867188 1.007813-.066406.089844-.132812.179687-.199219.269531-.25.355469-.484375.714844-.6875 1.097656-.015625.023438-.023437.046876-.035156.070313-.191406.363281-.351563.738281-.492187 1.121094-.039063.101562-.078126.207031-.113282.3125-.136718.40625-.257812.816406-.339844 1.238281-.003906.007812-.003906.015625-.003906.023438-.082031.414062-.128906.832031-.1562498 1.257812-.0078124.113281-.015625.226562-.0195312.339844-.0039062.109375-.015625.222656-.015625.335937v387.980469c0 5.523438 4.476562 10 10 10h364.441406c5.523438 0 10-4.476562 10-10v-492c.003906-5.523438-4.472656-10-9.996094-10zm-270.425781 34.144531v69.875h-69.875zm260.425781 457.855469h-180.609374v-39.386719h43.191406c5.523437 0 10-4.476562 10-10v-38.207031c0-5.523438-4.476563-10-10-10-5.523438 0-10 4.476562-10 10v28.207031h-43.191406c-5.523438 0-10 4.480469-10 10v49.386719h-143.835938v-367.980469h94.019531c5.523438 0 10-4.480469 10-10v-94.019531h240.425781v412.613281h-33.191406v-205.800781c0-5.523438-4.476562-10-10-10h-147.417968c-5.523438 0-10 4.476562-10 10v59.382812c0 5.523438 4.476562 10 10 10h43.191406v28.210938c0 5.519531 4.476562 10 10 10 5.523437 0 10-4.480469 10-10v-38.210938c0-5.519531-4.476563-10-10-10h-43.191406v-39.382812h127.417968v205.800781c0 5.523438 4.476563 10 10 10h43.191406zm0 0"/><path d="m274.140625 200.683594c31.492187 0 57.113281-25.621094 57.113281-57.113282 0-31.492187-25.621094-57.109374-57.113281-57.109374s-57.113281 25.617187-57.113281 57.109374c0 31.492188 25.621094 57.113282 57.113281 57.113282zm0-94.226563c20.464844 0 37.113281 16.648438 37.113281 37.113281 0 20.460938-16.648437 37.109376-37.113281 37.109376s-37.113281-16.648438-37.113281-37.109376c0-20.464843 16.648437-37.113281 37.113281-37.113281zm0 0"/><path d="m227.027344 354.40625c-5.507813 0-10 4.492188-10 10s4.492187 10 10 10c5.507812 0 10.003906-4.492188 10.003906-10s-4.496094-10-10.003906-10zm0 0"/></g></svg>