<?xml version="1.0" encoding="iso-8859-1"?>
<!-- Generator: Adobe Illustrator 18.0.0, SVG Export Plug-In . SVG Version: 6.00 Build 0)  -->
<!DOCTYPE svg PUBLIC "-//W3C//DTD SVG 1.1//EN" "http://www.w3.org/Graphics/SVG/1.1/DTD/svg11.dtd">
<svg version="1.1" id="Capa_1" xmlns="http://www.w3.org/2000/svg" xmlns:xlink="http://www.w3.org/1999/xlink" x="0px" y="0px"
	 viewBox="0 0 60 60" style="enable-background:new 0 0 60 60;" xml:space="preserve">
<g>
	<path d="M59,18V4H36c-0.553,0-1,0.447-1,1s0.447,1,1,1h17.586l-4.292,4.292c-0.033,0.033-0.05,0.078-0.078,0.115
		c-0.037,0.049-0.074,0.095-0.101,0.15c-0.011,0.022-0.028,0.039-0.038,0.062c-0.017,0.04-0.016,0.083-0.027,0.125
		c-0.017,0.063-0.032,0.123-0.037,0.188C49.012,10.954,49,10.976,49,11v7H11v-7c0-0.024-0.012-0.046-0.013-0.069
		c-0.005-0.065-0.02-0.125-0.037-0.188c-0.011-0.042-0.01-0.085-0.027-0.125c-0.01-0.023-0.027-0.04-0.038-0.062
		c-0.027-0.054-0.064-0.1-0.101-0.149c-0.028-0.037-0.046-0.082-0.078-0.115L6.414,6H24c0.553,0,1-0.447,1-1s-0.447-1-1-1H1v14H0
		v37.259C0,57.873,2.127,60,4.741,60h50.518C57.873,60,60,57.873,60,55.259V18H59z M57,6v12h-0.5l-5.179-6.906L56.414,6H57z
		 M51,13.999L54,18h-3V13.999z M6,18l3-4.001V18H6z M3,6h0.586l5.094,5.094L3.5,18H3V6z M58,55.259C58,56.771,56.771,58,55.259,58
		H4.741C3.229,58,2,56.771,2,55.259V20h56V55.259z"/>
	<path d="M42,26c-0.553,0-1,0.447-1,1v6c0,6.065-4.935,11-11,11s-11-4.935-11-11v-6c0-0.553-0.447-1-1-1s-1,0.447-1,1v6
		c0,7.168,5.832,13,13,13s13-5.832,13-13v-6C43,26.447,42.553,26,42,26z"/>
	<path d="M20,27c0,0.553,0.447,1,1,1s1-0.447,1-1c0-2.206-1.794-4-4-4s-4,1.794-4,4c0,0.553,0.447,1,1,1s1-0.447,1-1
		c0-1.103,0.897-2,2-2S20,25.897,20,27z"/>
	<path d="M42,23c-2.206,0-4,1.794-4,4c0,0.553,0.447,1,1,1s1-0.447,1-1c0-1.103,0.897-2,2-2s2,0.897,2,2c0,0.553,0.447,1,1,1
		s1-0.447,1-1C46,24.794,44.206,23,42,23z"/>
	<path d="M23.707,8.293c-0.391-0.391-1.023-0.391-1.414,0s-0.391,1.023,0,1.414l6.999,6.999c0.092,0.093,0.203,0.166,0.326,0.217
		C29.74,16.974,29.87,17,30,17s0.26-0.026,0.382-0.077c0.123-0.051,0.234-0.124,0.326-0.217l6.999-6.999
		c0.391-0.391,0.391-1.023,0-1.414s-1.023-0.391-1.414,0L31,13.586V1c0-0.553-0.447-1-1-1s-1,0.447-1,1v12.586L23.707,8.293z"/>
</g>
<g>
</g>
<g>
</g>
<g>
</g>
<g>
</g>
<g>
</g>
<g>
</g>
<g>
</g>
<g>
</g>
<g>
</g>
<g>
</g>
<g>
</g>
<g>
</g>
<g>
</g>
<g>
</g>
<g>
</g>
</svg>
