<?xml version="1.0" encoding="iso-8859-1"?>
<!-- Generator: Adobe Illustrator 19.1.0, SVG Export Plug-In . SVG Version: 6.00 Build 0)  -->
<svg version="1.1" id="Capa_1" xmlns="http://www.w3.org/2000/svg" xmlns:xlink="http://www.w3.org/1999/xlink" x="0px" y="0px"
	 viewBox="0 0 48.965 48.965" style="enable-background:new 0 0 48.965 48.965;" xml:space="preserve">
<path style="fill:#1E201D;" d="M24.157,42.474l-1.921-2.825c-0.349-0.508-0.222-1.206,0.302-1.556
	c0.508-0.349,1.19-0.206,1.54,0.302l3.095,4.555c0.317,0.413,0.302,1-0.048,1.413l-3.651,4.222c-0.397,0.46-1.095,0.508-1.571,0.111
	c-0.46-0.413-0.508-1.111-0.111-1.587l2.095-2.413c-0.698-0.016-1.381-0.079-2.079-0.175c-1.095-0.143-2.19-0.381-3.286-0.73
	c-5.317-1.651-9.476-5.301-11.872-9.873c-2.413-4.571-3.063-10.063-1.413-15.381c1.032-3.317,2.841-6.19,5.158-8.46
	c2.413-2.349,5.381-4.063,8.603-4.968c0.587-0.175,1.206,0.175,1.381,0.762c0.175,0.603-0.175,1.222-0.778,1.381
	c-2.857,0.825-5.508,2.349-7.635,4.428c-2.079,2.016-3.682,4.555-4.587,7.508c-1.476,4.73-0.889,9.619,1.238,13.682
	c2.143,4.063,5.825,7.317,10.555,8.793c0.984,0.302,1.968,0.508,2.936,0.651C22.792,42.41,23.474,42.458,24.157,42.474
	L24.157,42.474z M29.966,43.855c-0.587,0.175-1.206-0.175-1.381-0.778c-0.159-0.587,0.175-1.206,0.778-1.381
	c2.873-0.81,5.508-2.333,7.65-4.428c2.063-2.016,3.666-4.555,4.587-7.492c1.46-4.746,0.873-9.619-1.254-13.698
	C38.204,12.014,34.521,8.76,29.792,7.3c-0.984-0.302-1.952-0.524-2.936-0.651c-0.683-0.095-1.365-0.143-2.032-0.159l1.905,2.825
	c0.349,0.508,0.222,1.206-0.286,1.54c-0.508,0.349-1.206,0.222-1.555-0.286l-3.095-4.571c-0.317-0.413-0.302-1,0.048-1.397
	L25.49,0.38c0.397-0.46,1.111-0.508,1.571-0.111c0.46,0.397,0.524,1.111,0.111,1.571l-2.095,2.413
	c0.698,0.032,1.381,0.079,2.079,0.175c1.095,0.159,2.19,0.397,3.286,0.73c5.333,1.667,9.476,5.317,11.872,9.889
	c2.413,4.571,3.063,10.063,1.413,15.381c-1.032,3.317-2.841,6.174-5.158,8.444C36.156,41.22,33.188,42.934,29.966,43.855
	L29.966,43.855z"/>
<g>
</g>
<g>
</g>
<g>
</g>
<g>
</g>
<g>
</g>
<g>
</g>
<g>
</g>
<g>
</g>
<g>
</g>
<g>
</g>
<g>
</g>
<g>
</g>
<g>
</g>
<g>
</g>
<g>
</g>
</svg>
