<?xml version="1.0" encoding="iso-8859-1"?>
<!-- Generator: Adobe Illustrator 19.0.0, SVG Export Plug-In . SVG Version: 6.00 Build 0)  -->
<svg version="1.1" id="Layer_1" xmlns="http://www.w3.org/2000/svg" xmlns:xlink="http://www.w3.org/1999/xlink" x="0px" y="0px"
	 viewBox="0 0 512 512" style="enable-background:new 0 0 512 512;" xml:space="preserve">
<g>
	<g>
		<g>
			<path d="M499.844,328l-53.885-45.104C447.333,273.49,448,264.646,448,256s-0.667-17.49-2.042-26.896L499.844,184
				c3.979-3.323,4.99-9.021,2.396-13.51L453.177,85.51c-2.594-4.479-8.021-6.458-12.896-4.688l-65.906,24.083
				c-14.094-11.031-29.75-20.042-46.677-26.844l-12.125-69.24C314.677,3.719,310.24,0,305.063,0h-98.125
				c-5.177,0-9.615,3.719-10.51,8.823l-12.125,69.24c-16.927,6.802-32.583,15.813-46.677,26.844L71.719,80.823
				c-4.844-1.802-10.313,0.198-12.896,4.688L9.76,170.49c-2.594,4.49-1.583,10.188,2.396,13.51l53.885,45.104
				C64.667,238.51,64,247.354,64,256s0.667,17.49,2.042,26.896L12.156,328c-3.979,3.323-4.99,9.021-2.396,13.51l49.063,84.979
				c2.604,4.49,8.083,6.469,12.896,4.688l65.906-24.083c14.094,11.031,29.75,20.042,46.677,26.844l12.125,69.24
				c0.896,5.104,5.333,8.823,10.51,8.823h98.125c5.177,0,9.615-3.719,10.51-8.823l12.125-69.24
				c16.927-6.802,32.583-15.813,46.677-26.844l65.906,24.083c4.844,1.74,10.302-0.198,12.896-4.688l49.063-84.979
				C504.833,337.021,503.823,331.323,499.844,328z M439.177,408.063l-63.167-23.083c-3.563-1.323-7.604-0.604-10.51,1.844
				c-14.969,12.552-32.104,22.406-50.938,29.302c-3.573,1.313-6.188,4.427-6.844,8.177l-11.615,66.365h-80.208l-11.615-66.365
				c-0.656-3.75-3.271-6.865-6.844-8.177c-18.833-6.896-35.969-16.75-50.938-29.302c-2.917-2.448-6.927-3.167-10.51-1.844
				l-63.167,23.083l-40.104-69.458l51.656-43.24c2.917-2.438,4.313-6.25,3.667-10c-1.823-10.5-2.708-20.104-2.708-29.365
				s0.885-18.865,2.708-29.365c0.646-3.75-0.75-7.563-3.667-10l-51.656-43.24l40.104-69.458l63.167,23.083
				c3.583,1.323,7.594,0.604,10.51-1.844c14.969-12.552,32.104-22.406,50.938-29.302c3.573-1.313,6.188-4.427,6.844-8.177
				l11.615-66.365h80.208l11.615,66.365c0.656,3.75,3.271,6.865,6.844,8.177c18.833,6.896,35.969,16.75,50.938,29.302
				c2.906,2.448,6.948,3.167,10.51,1.844l63.167-23.083l40.104,69.458l-51.656,43.24c-2.917,2.438-4.313,6.25-3.667,10
				c1.823,10.5,2.708,20.104,2.708,29.365s-0.885,18.865-2.708,29.365c-0.646,3.75,0.75,7.563,3.667,10l51.656,43.24
				L439.177,408.063z"/>
			<path d="M256,149.333c-58.813,0-106.667,47.854-106.667,106.667S197.188,362.667,256,362.667S362.667,314.813,362.667,256
				S314.813,149.333,256,149.333z M256,341.333c-47.052,0-85.333-38.281-85.333-85.333s38.281-85.333,85.333-85.333
				s85.333,38.281,85.333,85.333S303.052,341.333,256,341.333z"/>
		</g>
	</g>
</g>
<g>
</g>
<g>
</g>
<g>
</g>
<g>
</g>
<g>
</g>
<g>
</g>
<g>
</g>
<g>
</g>
<g>
</g>
<g>
</g>
<g>
</g>
<g>
</g>
<g>
</g>
<g>
</g>
<g>
</g>
</svg>
