<?xml version="1.0" encoding="iso-8859-1"?>
<!-- Generator: Adobe Illustrator 19.0.0, SVG Export Plug-In . SVG Version: 6.00 Build 0)  -->
<svg version="1.1" id="Layer_1" xmlns="http://www.w3.org/2000/svg" xmlns:xlink="http://www.w3.org/1999/xlink" x="0px" y="0px"
	 viewBox="0 0 512 512" style="enable-background:new 0 0 512 512;" xml:space="preserve">
<g>
	<g>
		<path d="M437.328,170.664V0H138.672l-64,64v128l10.656,0.023v21.305H74.672V512h362.656V234.664h-10.656v-32
			c5.891,0,10.656-4.773,10.656-10.664s-4.766-10.672-10.656-10.672v-10.664H437.328z M416,149.328h-10.672v21.336v64V256H416
			v234.656H96V234.664h10.672v-21.336v-21.305V170.75L96,170.719V72.836l51.5-51.508H416V149.328z"/>
	</g>
</g>
<g>
	<g>
		<path d="M128,64c-5.891,0-10.672,4.773-10.672,10.664v64c0,5.891,4.781,10.664,10.672,10.664s10.672-4.773,10.672-10.664v-64
			C138.672,68.773,133.891,64,128,64z"/>
	</g>
</g>
<g>
	<g>
		<path d="M170.672,42.664c-5.891,0-10.672,4.773-10.672,10.664v64c0,5.891,4.781,10.672,10.672,10.672s10.656-4.781,10.656-10.672
			v-64C181.328,47.438,176.563,42.664,170.672,42.664z"/>
	</g>
</g>
<g>
	<g>
		<path d="M213.328,42.664c-5.891,0-10.656,4.773-10.656,10.664v64c0,5.891,4.766,10.672,10.656,10.672S224,123.219,224,117.328v-64
			C224,47.438,219.219,42.664,213.328,42.664z"/>
	</g>
</g>
<g>
	<g>
		<path d="M256,42.664c-5.891,0-10.672,4.773-10.672,10.664v64c0,5.891,4.781,10.672,10.672,10.672s10.672-4.781,10.672-10.672v-64
			C266.672,47.437,261.891,42.664,256,42.664z"/>
	</g>
</g>
<g>
	<g>
		<path d="M298.672,42.664c-5.891,0-10.672,4.773-10.672,10.664v64c0,5.891,4.781,10.672,10.672,10.672s10.656-4.781,10.656-10.672
			v-64C309.328,47.438,304.563,42.664,298.672,42.664z"/>
	</g>
</g>
<g>
	<g>
		<path d="M341.328,42.664c-5.891,0-10.656,4.773-10.656,10.664v64c0,5.891,4.766,10.672,10.656,10.672
			c5.891,0,10.672-4.781,10.672-10.672v-64C352,47.437,347.219,42.664,341.328,42.664z"/>
	</g>
</g>
<g>
	<g>
		<path d="M384,42.664c-5.891,0-10.672,4.773-10.672,10.664v64c0,5.891,4.781,10.672,10.672,10.672s10.672-4.781,10.672-10.672v-64
			C394.672,47.438,389.891,42.664,384,42.664z"/>
	</g>
</g>
<g>
	<g>
		<path d="M279.234,419.25c-17.016-4.781-26.125-5.375-26.125-12.813c0-6.109,5.156-9.703,13.781-9.703
			c9.953,0,15.469,4.422,16.188,12.703h17.734c-0.359-19.063-14.859-27.203-32.844-27.203c-19.891,0-32.828,10.063-32.828,25.516
			c0,17.375,13.297,20.859,27.203,24.813c17.609,5.031,23.359,6.219,23.359,12.938c0,7.063-5.984,11.375-15.813,11.375
			c-11.391,0-18.938-4.547-19.297-16.047h-18.563c0.234,19.297,13.891,30.438,37.016,30.438c17.375,0,35.109-7.422,35.109-27.563
			C304.156,429.438,294.453,423.563,279.234,419.25z"/>
	</g>
</g>
<g>
	<g>
		<path d="M353.328,384.031h-34.516v85.313h34.516c26.484,0,41.344-15.219,41.344-42.656
			C394.672,399.125,379.813,384.031,353.328,384.031z M351.047,453.766h-13.656V399.61h13.656c16.906,0,24.813,9.953,24.813,27.078
			S368.188,453.766,351.047,453.766z"/>
	</g>
</g>
<g>
</g>
<g>
</g>
<g>
</g>
<g>
</g>
<g>
</g>
<g>
</g>
<g>
</g>
<g>
</g>
<g>
</g>
<g>
</g>
<g>
</g>
<g>
</g>
<g>
</g>
<g>
</g>
<g>
</g>
</svg>
