<?xml version="1.0" encoding="iso-8859-1"?>
<!-- Generator: Adobe Illustrator 16.0.0, SVG Export Plug-In . SVG Version: 6.00 Build 0)  -->
<!DOCTYPE svg PUBLIC "-//W3C//DTD SVG 1.1//EN" "http://www.w3.org/Graphics/SVG/1.1/DTD/svg11.dtd">
<svg version="1.1" id="Capa_1" xmlns="http://www.w3.org/2000/svg" xmlns:xlink="http://www.w3.org/1999/xlink" x="0px" y="0px"
	 width="612px" height="612px" viewBox="0 0 612 612" style="enable-background:new 0 0 612 612;" xml:space="preserve">
<g>
	<g id="Rectangle_46_copy_16_1_">
		<g>
			<path d="M312.162,172.445l-19.612-19.556L138.979,306l19.612,19.557L292.55,459.111l19.612-19.557L192.084,319.825H459v-27.665
				H192.084L312.162,172.445z M181.569,309.353L178.203,306l3.366-3.352V309.353z M306,0C137.004,0,0,137.004,0,306
				c0,168.995,137.004,306,306,306c168.995,0,306-137.005,306-306C612,137.004,474.995,0,306,0z M306,584.182
				C152.36,584.182,27.818,459.64,27.818,306S152.36,27.818,306,27.818S584.182,152.36,584.182,306S459.64,584.182,306,584.182z"/>
		</g>
	</g>
</g>
<g>
</g>
<g>
</g>
<g>
</g>
<g>
</g>
<g>
</g>
<g>
</g>
<g>
</g>
<g>
</g>
<g>
</g>
<g>
</g>
<g>
</g>
<g>
</g>
<g>
</g>
<g>
</g>
<g>
</g>
</svg>
