<svg height="512pt" viewBox="-46 0 512 512" width="512pt" xmlns="http://www.w3.org/2000/svg"><path d="m209.792969 223.5c-4.140625 0-7.5-3.355469-7.5-7.5v-208.5c0-4.144531 3.359375-7.5 7.5-7.5s7.5 3.355469 7.5 7.5v208.5c0 4.144531-3.359375 7.5-7.5 7.5zm0 0" fill="#d8e6f0"/><g fill="#363b51"><path d="m300.144531 512c-2.078125 0-4.148437-.859375-5.632812-2.546875-2.734375-3.109375-2.433594-7.847656.675781-10.585937l63.015625-55.4375c.183594-.160157.222656-.429688.09375-.640626l-54.652344-87.976562c-2.1875-3.519531-1.105469-8.144531 2.414063-10.328125 3.519531-2.183594 8.140625-1.105469 10.328125 2.414063l54.652343 87.976562c4.011719 6.460938 2.78125 14.796875-2.929687 19.816406l-63.011719 55.4375c-1.425781 1.257813-3.191406 1.871094-4.953125 1.871094zm0 0"/><path d="m285.515625 261.21875c-1.351563 0-2.714844-.367188-3.949219-1.128906-3.519531-2.183594-4.601562-6.808594-2.417968-10.328125l44.523437-71.761719c.140625-.230469.074219-.539062-.15625-.683594l-82.835937-53.339844c-3.484376-2.242187-4.488282-6.886718-2.246094-10.367187 2.242187-3.480469 6.886718-4.484375 10.367187-2.246094l82.835938 53.339844c7.066406 4.550781 9.210937 14.0625 4.78125 21.203125l-44.523438 71.765625c-1.417969 2.285156-3.871093 3.546875-6.378906 3.546875zm0 0"/><path d="m412.074219 437.996094c-3.703125 0-6.921875-2.742188-7.425781-6.515625l-10.96875-82.542969c-.027344-.207031-.175782-.371094-.378907-.421875l-80.292969-19.425781c-4.027343-.972656-6.5-5.027344-5.527343-9.054688.976562-4.023437 5.027343-6.488281 9.054687-5.523437l80.292969 19.425781c6.171875 1.496094 10.882813 6.730469 11.71875 13.023438l10.972656 82.542968c.546875 4.105469-2.339843 7.878906-6.445312 8.425782-.335938.042968-.671875.066406-1 .066406zm0 0"/><path d="m307.878906 294.523438c-3.074218 0-5.957031-1.902344-7.054687-4.960938-1.40625-3.894531.617187-8.191406 4.515625-9.597656l87.933594-31.660156c.175781-.0625.300781-.214844.328124-.402344l11.050782-82.78125c.546875-4.105469 4.316406-7 8.425781-6.441406 4.105469.546874 6.988281 4.320312 6.441406 8.425781l-11.050781 82.78125c-.769531 5.761719-4.644531 10.5625-10.109375 12.53125l-87.9375 31.660156c-.839844.304687-1.699219.445313-2.542969.445313zm0 0"/><path d="m119.441406 512c-1.761718 0-3.527344-.613281-4.953125-1.867188l-63.011719-55.441406c-5.710937-5.019531-6.941406-13.355468-2.929687-19.8125l54.652344-87.980468c2.1875-3.515626 6.808593-4.597657 10.328125-2.414063 3.519531 2.1875 4.597656 6.8125 2.414062 10.332031l-54.652344 87.976563c-.128906.210937-.089843.476562.09375.640625l63.015626 55.4375c3.109374 2.734375 3.414062 7.476562.675781 10.585937-1.484375 1.683594-3.554688 2.542969-5.632813 2.542969zm0 0"/><path d="m134.070312 261.21875c-2.507812 0-4.960937-1.257812-6.378906-3.546875l-44.523437-71.765625c-4.429688-7.140625-2.285157-16.652344 4.78125-21.203125l82.835937-53.339844c3.484375-2.242187 8.125-1.234375 10.367188 2.246094 2.242187 3.480469 1.238281 8.125-2.246094 10.367187l-82.835938 53.339844c-.230468.144532-.296874.453125-.15625.683594l44.523438 71.761719c2.183594 3.519531 1.101562 8.144531-2.417969 10.328125-1.234375.761718-2.601562 1.128906-3.949219 1.128906zm0 0"/><path d="m7.511719 437.996094c-.328125 0-.664063-.023438-1-.066406-4.105469-.546876-6.992188-4.316407-6.4453128-8.421876l10.9726558-82.546874c.835938-6.292969 5.542969-11.527344 11.71875-13.019532l80.292969-19.429687c4.027344-.972657 8.078125 1.5 9.054688 5.527343.972656 4.023438-1.5 8.078126-5.527344 9.054688l-80.292969 19.425781c-.203125.046875-.351562.210938-.378906.417969l-10.96875 82.546875c-.503906 3.769531-3.722656 6.511719-7.425781 6.511719zm0 0"/><path d="m111.707031 294.523438c-.84375 0-1.703125-.140626-2.542969-.445313l-87.933593-31.65625c-5.46875-1.972656-9.34375-6.773437-10.113281-12.535156l-11.0507818-82.78125c-.5468752-4.105469 2.3359378-7.878907 6.4414058-8.425781 4.101563-.546876 7.878907 2.335937 8.425782 6.441406l11.050781 82.78125c.027344.1875.152344.339844.328125.40625l87.933594 31.65625c3.898437 1.402344 5.917968 5.699218 4.515625 9.597656-1.101563 3.058594-3.984375 4.960938-7.054688 4.960938zm0 0"/></g><path d="m334.527344 311.945312c0-61.253906-55.84375-110.914062-124.734375-110.914062s-124.734375 49.660156-124.734375 110.914062c0 61.257813 55.84375 110.914063 124.734375 110.914063s124.734375-49.65625 124.734375-110.914063zm0 0" fill="#4e5173"/><path d="m242.101562 204.796875c39.605469 18.585937 66.605469 55.5625 66.605469 98.148437 0 61.257813-55.847656 110.914063-124.738281 110.914063-11.175781 0-22.003906-1.3125-32.308594-3.761719 17.363282 8.144532 37.136719 12.761719 58.132813 12.761719 68.890625 0 124.734375-49.65625 124.734375-110.914063 0-51.320312-39.199219-94.492187-92.425782-107.148437zm0 0" fill="#363b51"/><path d="m304.898438 396.691406c0-45.746094-42.582032-82.828125-95.105469-82.828125-52.523438 0-95.105469 37.082031-95.105469 82.828125 0 45.742188 42.582031 82.824219 95.105469 82.824219 52.523437 0 95.105469-37.082031 95.105469-82.824219zm0 0" fill="#6e7093"/><path d="m273.292969 335.035156c10.105469 13.15625 16 28.972656 16 45.988282 0 45.746093-42.582031 82.828124-95.105469 82.828124-24.40625 0-46.664062-8.011718-63.5-21.175781 17.058594 22.214844 46.117188 36.839844 79.105469 36.839844 52.523437 0 95.105469-37.082031 95.105469-82.824219 0-24.488281-12.207032-46.492187-31.605469-61.65625zm0 0" fill="#4e5173"/><path d="m268.320312 392.710938c0 18.65625-15.132812 33.792968-33.792968 33.792968-9.78125 0-18.5625-4.183594-24.734375-10.828125-6.171875 6.644531-14.953125 10.828125-24.734375 10.828125-18.660156 0-33.792969-15.136718-33.792969-33.792968 0-7.847657 2.675781-15.078126 7.175781-20.804688 13.894532 7.035156 31.8125 11.273438 51.351563 11.273438 19.535156 0 37.457031-4.238282 51.351562-11.273438 4.5 5.726562 7.175781 12.957031 7.175781 20.804688zm0 0" fill="#e6eff5"/><path d="m236.078125 409.96875c-1.917969 0-3.839844-.730469-5.300781-2.195312l-.925782-.925782c-2.929687-2.929687-2.929687-7.679687 0-10.609375 2.925782-2.925781 7.675782-2.925781 10.605469 0l.925781.925781c2.929688 2.933594 2.929688 7.679688 0 10.609376-1.464843 1.460937-3.386718 2.195312-5.304687 2.195312zm0 0" fill="#363b51"/><path d="m183.507812 409.96875c-1.921874 0-3.839843-.730469-5.304687-2.195312-2.929687-2.929688-2.929687-7.679688 0-10.609376l.925781-.925781c2.929688-2.925781 7.679688-2.925781 10.605469 0 2.929687 2.933594 2.929687 7.679688 0 10.609375l-.925781.925782c-1.460938 1.460937-3.382813 2.195312-5.300782 2.195312zm0 0" fill="#363b51"/><path d="m242.242188 228.617188c-21.632813-10.253907-43.265626-10.253907-64.898438 0-2.332031 1.109374-2.921875 4.164062-1.21875 6.105468l15.019531 17.121094c1.296875 1.476562 1.296875 3.6875 0 5.167969l-8.957031 10.210937c-2.523438 2.871094.15625 7.335938 3.863281 6.390625 15.828125-4.023437 31.65625-4.023437 47.484375 0 3.707032.945313 6.386719-3.519531 3.863282-6.390625l-8.957032-10.210937c-1.296875-1.480469-1.296875-3.691407 0-5.167969l15.019532-17.121094c1.703124-1.9375 1.113281-4.996094-1.21875-6.105468zm0 0" fill="#ed6161"/><path d="m209.792969 390.679688c-19.917969 0-39.355469-4.292969-54.738281-12.082032-4.5625-2.320312-8.722657-4.898437-12.375-7.667968-3.300782-2.503907-3.945313-7.207032-1.445313-10.507813 2.503906-3.300781 7.210937-3.949219 10.507813-1.445313 2.945312 2.234376 6.34375 4.335938 10.101562 6.246094 13.308594 6.742188 30.34375 10.457032 47.949219 10.457032 17.609375 0 34.640625-3.714844 47.960937-10.464844 3.746094-1.902344 7.144532-4.003906 10.089844-6.238282 3.300781-2.503906 8.003906-1.855468 10.507812 1.445313 2.503907 3.300781 1.855469 8.003906-1.445312 10.507813-3.652344 2.769531-7.8125 5.347656-12.363281 7.660156-15.394531 7.796875-34.832031 12.089844-54.75 12.089844zm0 0" fill="#4e5173"/></svg>