<?xml version="1.0" encoding="UTF-8" standalone="no"?><svg xmlns:dc="http://purl.org/dc/elements/1.1/" xmlns:cc="http://creativecommons.org/ns#" xmlns:rdf="http://www.w3.org/1999/02/22-rdf-syntax-ns#" xmlns:svg="http://www.w3.org/2000/svg" xmlns="http://www.w3.org/2000/svg" version="1.1" x="0px" y="0px" viewBox="0 0 56 56" style="enable-background:new 0 0 56 56" xml:space="preserve"><g><path style="fill:#e9e9e0" d="M36.985,0H7.963C7.155,0,6.5,0.655,6.5,1.926V55c0,0.345,0.655,1,1.463,1h40.074 c0.808,0,1.463-0.655,1.463-1V12.978c0-0.696-0.093-0.92-0.257-1.085L37.607,0.257C37.442,0.093,37.218,0,36.985,0z"/><polygon style="fill:#d9d7ca" points="37.5,0.151 37.5,12 49.349,12"/><path style="fill:#90bae1;fill-opacity:1" d="M48.037,56H7.963C7.155,56,6.5,55.345,6.5,54.537V39h43v15.537C49.5,55.345,48.845,56,48.037,56z"/><g><path style="fill:#c8bdb8" d="M28.5,24v-2h2v-2h-2v-2h2v-2h-2v-2h2v-2h-2v-2h2V8h-2V6h-2v2h-2v2h2v2h-2v2h2v2h-2v2h2v2h-2v2h2v2 h-4v5c0,2.757,2.243,5,5,5s5-2.243,5-5v-5H28.5z M30.5,29c0,1.654-1.346,3-3,3s-3-1.346-3-3v-3h6V29z"/><path style="fill:#c8bdb8" d="M26.5,30h2c0.552,0,1-0.447,1-1s-0.448-1-1-1h-2c-0.552,0-1,0.447-1,1S25.948,30,26.5,30z"/></g></g><g transform="scale(0.99005755,1.0100423)" style="font-style:normal;font-variant:normal;font-weight:400;font-stretch:normal;font-size:13.88808155px;font-family:Allerta;-inkscape-font-specification:Allerta;fill:#fff;fill-opacity:1"><path d="m 22.232274,52.472202 3.47202,-8.666488 -4.353588,0 0,-1.329133 6.279474,0 -3.878897,9.995621 -1.519009,0 z" style="fill:#fff"/><path d="m 29.393316,44.822907 5.818346,0 0,1.315571 -3.933148,4.801153 -0.271251,0.217001 4.204399,0 0,1.31557 -5.818346,0 0,-1.31557 3.933148,-4.801153 0.271251,-0.217001 -4.204399,0 0,-1.315571 z" style="fill:#fff"/></g></svg>