<?xml version="1.0" encoding="iso-8859-1"?><!DOCTYPE svg PUBLIC "-//W3C//DTD SVG 1.1//EN" "http://www.w3.org/Graphics/SVG/1.1/DTD/svg11.dtd"><svg version="1.1" xmlns="http://www.w3.org/2000/svg" xmlns:xlink="http://www.w3.org/1999/xlink" x="0px" y="0px" viewBox="0 0 56 56" style="enable-background:new 0 0 56 56" xml:space="preserve"><g><path style="fill:#e9e9e0" d="M36.985,0H7.963C7.155,0,6.5,0.655,6.5,1.926V55c0,0.345,0.655,1,1.463,1h40.074 c0.808,0,1.463-0.655,1.463-1V12.978c0-0.696-0.093-0.92-0.257-1.085L37.607,0.257C37.442,0.093,37.218,0,36.985,0z"/><path style="fill:#ffc14f" d="M48.037,56H7.963C7.155,56,6.5,55.345,6.5,54.537V39h43v15.537C49.5,55.345,48.845,56,48.037,56z"/><g><path style="fill:#fff" d="M20.067,53l3.527-10.063h1.627L28.722,53h-1.695l-0.725-2.092h-3.787L21.776,53H20.067z M22.897,49.801h3.008l-1.49-4.348L22.897,49.801z"/><path style="fill:#fff" d="M32.536,53h-1.668V42.924h1.668V53z"/></g><path style="fill:#c8bdb8" d="M37.5,11v0.461c-3.071,0.968-5.503,3.382-6.502,6.44C30.311,17.346,29.45,17,28.5,17 c-1.859,0-3.411,1.28-3.858,3H21.5v-2h-6v6h6v-2h2.921c-0.336,2.663-1.985,4.978-4.389,6.163C19.364,26.884,18.04,26,16.5,26 c-2.206,0-4,1.794-4,4s1.794,4,4,4c2.146,0,3.888-1.702,3.982-3.825c2.655-1.151,4.647-3.387,5.524-6.073 C26.692,24.655,27.552,25,28.5,25c1.859,0,3.411-1.28,3.858-3H35.5v2h6v-6h-6v2h-2.931c0.379-3.019,2.444-5.514,5.222-6.518 C38.383,14.955,39.818,16,41.5,16c2.206,0,4-1.794,4-4v-1H37.5z M19.5,22h-2v-2h2V22z M16.5,32c-1.103,0-2-0.897-2-2s0.897-2,2-2 s2,0.897,2,2S17.603,32,16.5,32z M37.5,20h2v2h-2V20z M28.5,23c-1.103,0-2-0.897-2-2s0.897-2,2-2s2,0.897,2,2S29.603,23,28.5,23z M41.5,14c-0.723,0-1.353-0.389-1.704-0.964C40.028,13.015,40.262,13,40.5,13h2.731C42.886,13.597,42.239,14,41.5,14z"/><polygon style="fill:#d9d7ca" points="37.5,0.151 37.5,12 49.349,12"/></g></svg>