<?xml version="1.0" encoding="iso-8859-1"?><!DOCTYPE svg PUBLIC "-//W3C//DTD SVG 1.1//EN" "http://www.w3.org/Graphics/SVG/1.1/DTD/svg11.dtd"><svg version="1.1" xmlns="http://www.w3.org/2000/svg" xmlns:xlink="http://www.w3.org/1999/xlink" x="0px" y="0px" viewBox="0 0 56 56" style="enable-background:new 0 0 56 56" xml:space="preserve"><g><path style="fill:#e9e9e0" d="M36.985,0H7.963C7.155,0,6.5,0.655,6.5,1.926V55c0,0.345,0.655,1,1.463,1h40.074 c0.808,0,1.463-0.655,1.463-1V12.978c0-0.696-0.093-0.92-0.257-1.085L37.607,0.257C37.442,0.093,37.218,0,36.985,0z"/><polygon style="fill:#d9d7ca" points="37.5,0.151 37.5,12 49.349,12"/><path style="fill:#d75e72" d="M48.037,56H7.963C7.155,56,6.5,55.345,6.5,54.537V39h43v15.537C49.5,55.345,48.845,56,48.037,56z"/><g><path style="fill:#fff" d="M16.361,53l3.527-10.063h1.627L25.016,53H23.32l-0.725-2.092h-3.787L18.07,53H16.361z M19.191,49.801h3.008l-1.49-4.348L19.191,49.801z"/><path style="fill:#fff" d="M29.828,53.055l-3.131-10.131h1.873l2.338,8.695l2.475-8.695h1.859l-3.281,10.131H29.828z"/><path style="fill:#fff" d="M38.988,53H37.32V42.924h1.668V53z"/></g><polygon style="fill:#c8bdb8" points="23.5,28 23.5,20.954 23.5,14 34.5,21"/></g></svg>