<?xml version="1.0" encoding="iso-8859-1"?><!DOCTYPE svg PUBLIC "-//W3C//DTD SVG 1.1//EN" "http://www.w3.org/Graphics/SVG/1.1/DTD/svg11.dtd"><svg version="1.1" xmlns="http://www.w3.org/2000/svg" xmlns:xlink="http://www.w3.org/1999/xlink" x="0px" y="0px" viewBox="0 0 56 56" style="enable-background:new 0 0 56 56" xml:space="preserve"><g><path style="fill:#e9e9e0" d="M36.985,0H7.963C7.155,0,6.5,0.655,6.5,1.926V55c0,0.345,0.655,1,1.463,1h40.074 c0.808,0,1.463-0.655,1.463-1V12.978c0-0.696-0.093-0.92-0.257-1.085L37.607,0.257C37.442,0.093,37.218,0,36.985,0z"/><polygon style="fill:#d9d7ca" points="37.5,0.151 37.5,12 49.349,12"/><path style="fill:#8697cb" d="M48.037,56H7.963C7.155,56,6.5,55.345,6.5,54.537V39h43v15.537C49.5,55.345,48.845,56,48.037,56z"/><g><path style="fill:#fff" d="M19.947,47.682c0,0.829-0.089,1.538-0.267,2.126s-0.403,1.08-0.677,1.477s-0.581,0.709-0.923,0.937 s-0.672,0.398-0.991,0.513c-0.319,0.114-0.611,0.187-0.875,0.219C15.95,52.984,15.754,53,15.627,53h-3.814V42.924h3.035 c0.848,0,1.593,0.135,2.235,0.403s1.176,0.627,1.6,1.073s0.74,0.955,0.95,1.524C19.842,46.494,19.947,47.08,19.947,47.682z M15.08,51.797c1.112,0,1.914-0.355,2.406-1.066s0.738-1.741,0.738-3.09c0-0.419-0.05-0.834-0.15-1.244 c-0.101-0.41-0.294-0.781-0.581-1.114s-0.677-0.602-1.169-0.807s-1.13-0.308-1.914-0.308h-0.957v7.629H15.08z"/><path style="fill:#fff" d="M35,42.924l-2.721,10.131h-2.133l-1.654-7.602l-1.764,7.602h-2.146l-2.557-10.131h1.859 l1.777,8.695l1.914-8.695h1.859l1.777,8.695l1.928-8.695H35z"/><path style="fill:#fff" d="M44.57,47.805v3.896c-0.21,0.265-0.444,0.48-0.704,0.649s-0.533,0.308-0.82,0.417 S42.463,52.954,42.157,53s-0.608,0.068-0.909,0.068c-0.602,0-1.155-0.109-1.661-0.328s-0.948-0.542-1.326-0.971 c-0.378-0.429-0.675-0.966-0.889-1.613c-0.214-0.647-0.321-1.395-0.321-2.242s0.107-1.593,0.321-2.235 c0.214-0.643,0.51-1.178,0.889-1.606c0.378-0.429,0.822-0.754,1.333-0.978s1.062-0.335,1.654-0.335 c0.547,0,1.058,0.091,1.531,0.273s0.897,0.456,1.271,0.82l-1.135,1.012c-0.219-0.265-0.47-0.456-0.752-0.574 s-0.574-0.178-0.875-0.178c-0.337,0-0.658,0.063-0.964,0.191s-0.579,0.344-0.82,0.649s-0.431,0.699-0.567,1.183 c-0.137,0.483-0.21,1.075-0.219,1.777c0.009,0.684,0.08,1.276,0.212,1.777c0.132,0.501,0.314,0.911,0.547,1.23 s0.497,0.556,0.793,0.711s0.608,0.232,0.937,0.232c0.101,0,0.234-0.007,0.403-0.021s0.337-0.036,0.506-0.068 s0.33-0.075,0.485-0.13s0.269-0.132,0.342-0.232v-2.488h-1.709v-1.121H44.57z"/></g><rect x="12.5" y="13" style="fill:#c8bdb8" width="15" height="15.065"/><rect x="34.5" y="14" style="fill:#ada29e" width="2" height="7"/><rect x="34.5" y="29" style="fill:#ada29e" width="2" height="7"/><path style="fill:#ada29e" d="M40.5,30h-10V20h10V30z M32.5,28h6v-6h-6V28z"/><rect x="39.5" y="24" style="fill:#ada29e" width="7" height="2"/><rect x="24.5" y="24" style="fill:#ada29e" width="7" height="2"/></g></svg>