<?xml version="1.0" encoding="iso-8859-1"?><!DOCTYPE svg PUBLIC "-//W3C//DTD SVG 1.1//EN" "http://www.w3.org/Graphics/SVG/1.1/DTD/svg11.dtd"><svg version="1.1" xmlns="http://www.w3.org/2000/svg" xmlns:xlink="http://www.w3.org/1999/xlink" x="0px" y="0px" viewBox="0 0 56 56" style="enable-background:new 0 0 56 56" xml:space="preserve"><g><path style="fill:#e9e9e0" d="M36.985,0H7.963C7.155,0,6.5,0.655,6.5,1.926V55c0,0.345,0.655,1,1.463,1h40.074 c0.808,0,1.463-0.655,1.463-1V12.978c0-0.696-0.093-0.92-0.257-1.085L37.607,0.257C37.442,0.093,37.218,0,36.985,0z"/><polygon style="fill:#d9d7ca" points="37.5,0.151 37.5,12 49.349,12"/><path style="fill:#9777a8" d="M48.037,56H7.963C7.155,56,6.5,55.345,6.5,54.537V39h43v15.537C49.5,55.345,48.845,56,48.037,56z"/><g><path style="fill:#fff" d="M17.082,44.168v3.172h4.211v1.121h-4.211v3.295h4.635V53h-6.303V42.924h6.303v1.244H17.082z"/><path style="fill:#fff" d="M28.58,48.105L31.137,53h-1.9l-1.6-3.801H27.5L25.777,53h-1.9l2.557-4.895l-2.721-5.182h1.873 l1.777,4.102H27.5l1.928-4.102h1.873L28.58,48.105z"/><path style="fill:#fff" d="M35.266,44.168v3.172h4.211v1.121h-4.211v3.295H39.9V53h-6.303V42.924H39.9v1.244H35.266z"/></g><path style="fill:#9777a8" d="M33.5,32c-0.099,0-0.2-0.015-0.299-0.046c-0.527-0.165-0.821-0.726-0.656-1.253l5-16 c0.165-0.527,0.726-0.821,1.253-0.656c0.527,0.165,0.821,0.726,0.656,1.253l-5,16C34.321,31.726,33.926,32,33.5,32z"/><circle style="fill:#9777a8" cx="29" cy="19.5" r="1.5"/><circle style="fill:#9777a8" cx="29" cy="26.5" r="1.5"/><path style="fill:#9777a8" d="M23.5,30h-2c-3.86,0-7-3.14-7-7s3.14-7,7-7h2c0.552,0,1,0.448,1,1s-0.448,1-1,1h-2 c-2.757,0-5,2.243-5,5s2.243,5,5,5h2c0.552,0,1,0.448,1,1S24.052,30,23.5,30z"/></g></svg>