<?xml version="1.0" encoding="UTF-8" standalone="no"?>
<svg
   version="1.1"
   x="0px"
   y="0px"
   viewBox="0 0 56 56"
   style="enable-background:new 0 0 56 56"
   xml:space="preserve"
   id="svg3458"
   sodipodi:docname="fit.svg"
   inkscape:version="1.2 (dc2aedaf03, 2022-05-15)"
   xmlns:inkscape="http://www.inkscape.org/namespaces/inkscape"
   xmlns:sodipodi="http://sodipodi.sourceforge.net/DTD/sodipodi-0.dtd"
   xmlns="http://www.w3.org/2000/svg"
   xmlns:svg="http://www.w3.org/2000/svg"><defs
     id="defs3462" /><sodipodi:namedview
     id="namedview3460"
     pagecolor="#ffffff"
     bordercolor="#666666"
     borderopacity="1.0"
     inkscape:showpageshadow="2"
     inkscape:pageopacity="0.0"
     inkscape:pagecheckerboard="0"
     inkscape:deskcolor="#d1d1d1"
     showgrid="false"
     inkscape:zoom="8.4285714"
     inkscape:cx="25.627119"
     inkscape:cy="27.584746"
     inkscape:window-width="953"
     inkscape:window-height="750"
     inkscape:window-x="2082"
     inkscape:window-y="141"
     inkscape:window-maximized="0"
     inkscape:current-layer="g3448" /><g
     id="g3448"><path
       style="fill:#e9e9e0"
       d="M36.985,0H7.963C7.155,0,6.5,0.655,6.5,1.926V55c0,0.345,0.655,1,1.463,1h40.074 c0.808,0,1.463-0.655,1.463-1V12.978c0-0.696-0.093-0.92-0.257-1.085L37.607,0.257C37.442,0.093,37.218,0,36.985,0z"
       id="path3440" /><polygon
       style="fill:#d9d7ca"
       points="37.5,0.151 37.5,12 49.349,12"
       id="polygon3442" /><path
       style="fill:#2a7eba;fill-opacity:1"
       d="M48.037,56H7.963C7.155,56,6.5,55.345,6.5,54.537V39h43v15.537C49.5,55.345,48.845,56,48.037,56z"
       id="path3444" /></g><path
     d="m 13.310059,43.820801 v 3.115234 h 4.135742 v 1.101074 h -4.135742 v 4.458008 h -1.638184 v -9.89624 h 6.190186 v 1.221924 z"
     style="font-style:normal;font-variant:normal;font-weight:400;font-stretch:normal;font-size:13.75px;font-family:Allerta;-inkscape-font-specification:Allerta;fill:#ffffff;fill-opacity:1"
     id="path12540"
     transform="translate(6.6737099,0.05545929)" /><path
     style="fill:#ffffff"
     d="M 32.536,53 H 30.868 V 42.924 h 1.668 z"
     id="path14159"
     transform="translate(-4.0717037,-0.44942371)" /><path
     style="fill:#ffffff"
     d="m 27.107,42.924 v 1.121 H 24.1 V 53 h -1.654 v -8.955 h -3.008 v -1.121 z"
     id="path15048"
     transform="translate(11.286822,-0.44942371)" /><g
     id="g10709"
     transform="matrix(0.92904891,0,0,0.92904891,3.5361094,2.009536)"
     style="stroke-width:1.07637"><path
       style="fill:none;fill-opacity:1;stroke:#c8bdb8;stroke-width:1.72219;stroke-linecap:round;stroke-linejoin:miter;stroke-dasharray:none;stroke-opacity:1"
       d="m 11.864407,7.1186441 c 0,0 0.646171,12.7691319 14.059322,12.9915259 13.413151,0.222394 13.584746,12.754237 13.584746,12.754237"
       id="path5771"
       transform="translate(0.83050849,0.23728813)"
       sodipodi:nodetypes="czc" /><circle
       style="fill:#e3727d;fill-opacity:1;stroke:none;stroke-width:3.13932;stroke-linecap:round;stroke-miterlimit:0.5;stroke-opacity:1"
       id="path8348"
       cx="29.067797"
       cy="8.3050852"
       r="4.6980653"
       transform="matrix(0.45704299,0,0,0.45704299,-0.64963969,3.2635414)" /><circle
       style="fill:#6cbc7d;fill-opacity:1;stroke:none;stroke-width:3.32291;stroke-linecap:round;stroke-miterlimit:0.5;stroke-opacity:1"
       id="path8348-5"
       cx="29.067797"
       cy="8.3050852"
       r="4.6980653"
       transform="matrix(0.43178918,0,0,0.43178918,27.787823,29.397006)" /></g></svg>
