<?xml version="1.0" encoding="iso-8859-1"?><!DOCTYPE svg PUBLIC "-//W3C//DTD SVG 1.1//EN" "http://www.w3.org/Graphics/SVG/1.1/DTD/svg11.dtd"><svg version="1.1" xmlns="http://www.w3.org/2000/svg" xmlns:xlink="http://www.w3.org/1999/xlink" x="0px" y="0px" viewBox="0 0 56 56" style="enable-background:new 0 0 56 56" xml:space="preserve"><g><path style="fill:#e9e9e0" d="M36.985,0H7.963C7.155,0,6.5,0.655,6.5,1.926V55c0,0.345,0.655,1,1.463,1h40.074 c0.808,0,1.463-0.655,1.463-1V12.978c0-0.696-0.093-0.92-0.257-1.085L37.607,0.257C37.442,0.093,37.218,0,36.985,0z"/><polygon style="fill:#d9d7ca" points="37.5,0.151 37.5,12 49.349,12"/><path style="fill:#ce3c3b" d="M48.037,56H7.963C7.155,56,6.5,55.345,6.5,54.537V39h43v15.537C49.5,55.345,48.845,56,48.037,56z"/><g><path style="fill:#fff" d="M17.246,44.168v3.172h4.211v1.121h-4.211V53h-1.668V42.924h6.303v1.244H17.246z"/><path style="fill:#fff" d="M25.299,42.924v8.832h4.635V53h-6.303V42.924H25.299z"/><path style="fill:#fff" d="M31.205,53l3.527-10.063h1.627L39.859,53h-1.695l-0.725-2.092h-3.787L32.914,53H31.205z M34.035,49.801h3.008l-1.49-4.348L34.035,49.801z"/></g><circle style="fill:#c8bdb8" cx="25.5" cy="16" r="2"/><g><path style="fill:#c8bdb8" d="M34.985,13.929l-0.707-0.707C32.201,11.144,29.438,10,26.5,10s-5.701,1.144-7.778,3.222 C16.644,15.299,15.5,18.062,15.5,21s1.144,5.701,3.222,7.778C20.799,30.856,23.562,32,26.5,32s5.701-1.144,7.778-3.222 l0.707-0.707L27.914,21L34.985,13.929z M32.118,28.032C30.528,29.308,28.567,30,26.5,30c-2.404,0-4.664-0.936-6.364-2.636 S17.5,23.404,17.5,21s0.936-4.664,2.636-6.364S24.096,12,26.5,12c2.067,0,4.028,0.692,5.618,1.968L25.086,21L32.118,28.032z"/><path style="fill:#c8bdb8" d="M35.5,20h-3c-0.553,0-1,0.447-1,1s0.447,1,1,1h3c0.553,0,1-0.447,1-1S36.053,20,35.5,20z"/><path style="fill:#c8bdb8" d="M41.5,20h-2c-0.553,0-1,0.447-1,1s0.447,1,1,1h2c0.553,0,1-0.447,1-1S42.053,20,41.5,20z"/></g></g></svg>