<?xml version="1.0" encoding="iso-8859-1"?><!DOCTYPE svg PUBLIC "-//W3C//DTD SVG 1.1//EN" "http://www.w3.org/Graphics/SVG/1.1/DTD/svg11.dtd"><svg version="1.1" xmlns="http://www.w3.org/2000/svg" xmlns:xlink="http://www.w3.org/1999/xlink" x="0px" y="0px" viewBox="0 0 56 56" style="enable-background:new 0 0 56 56" xml:space="preserve"><g><path style="fill:#e9e9e0" d="M36.985,0H7.963C7.155,0,6.5,0.655,6.5,1.926V55c0,0.345,0.655,1,1.463,1h40.074 c0.808,0,1.463-0.655,1.463-1V12.978c0-0.696-0.093-0.92-0.257-1.085L37.607,0.257C37.442,0.093,37.218,0,36.985,0z"/><polygon style="fill:#d9d7ca" points="37.5,0.151 37.5,12 49.349,12"/><path style="fill:#71c285" d="M48.037,56H7.963C7.155,56,6.5,55.345,6.5,54.537V39h43v15.537C49.5,55.345,48.845,56,48.037,56z"/><g><path style="fill:#fff" d="M20.453,53h-1.668V42.924h1.668V53z"/><path style="fill:#fff" d="M28.67,50.238c0,0.364-0.075,0.718-0.226,1.06s-0.362,0.643-0.636,0.902s-0.611,0.467-1.012,0.622 c-0.401,0.155-0.857,0.232-1.367,0.232c-0.219,0-0.444-0.012-0.677-0.034s-0.468-0.062-0.704-0.116 c-0.237-0.055-0.463-0.13-0.677-0.226s-0.399-0.212-0.554-0.349l0.287-1.176c0.127,0.073,0.289,0.144,0.485,0.212 s0.398,0.132,0.608,0.191c0.209,0.06,0.419,0.107,0.629,0.144c0.209,0.036,0.405,0.055,0.588,0.055c0.556,0,0.982-0.13,1.278-0.39 s0.444-0.645,0.444-1.155c0-0.31-0.105-0.574-0.314-0.793c-0.21-0.219-0.472-0.417-0.786-0.595s-0.654-0.355-1.019-0.533 c-0.365-0.178-0.707-0.388-1.025-0.629c-0.319-0.241-0.584-0.526-0.793-0.854c-0.21-0.328-0.314-0.738-0.314-1.23 c0-0.446,0.082-0.843,0.246-1.189s0.385-0.641,0.663-0.882s0.602-0.426,0.971-0.554s0.759-0.191,1.169-0.191 c0.419,0,0.843,0.039,1.271,0.116c0.428,0.077,0.774,0.203,1.039,0.376c-0.055,0.118-0.119,0.248-0.191,0.39 c-0.073,0.142-0.142,0.273-0.205,0.396c-0.064,0.123-0.119,0.226-0.164,0.308c-0.046,0.082-0.073,0.128-0.082,0.137 c-0.055-0.027-0.116-0.063-0.185-0.109s-0.167-0.091-0.294-0.137c-0.128-0.046-0.297-0.077-0.506-0.096 c-0.21-0.019-0.479-0.014-0.807,0.014c-0.183,0.019-0.355,0.07-0.52,0.157s-0.311,0.193-0.438,0.321 c-0.128,0.128-0.229,0.271-0.301,0.431c-0.073,0.159-0.109,0.313-0.109,0.458c0,0.364,0.104,0.658,0.314,0.882 c0.209,0.224,0.469,0.419,0.779,0.588c0.31,0.169,0.646,0.333,1.012,0.492c0.364,0.159,0.704,0.354,1.019,0.581 s0.576,0.513,0.786,0.854C28.564,49.261,28.67,49.7,28.67,50.238z"/><path style="fill:#fff" d="M38.568,47.914c0,0.848-0.107,1.595-0.321,2.242s-0.511,1.185-0.889,1.613s-0.82,0.752-1.326,0.971 s-1.06,0.328-1.661,0.328s-1.155-0.109-1.661-0.328s-0.948-0.542-1.326-0.971s-0.675-0.966-0.889-1.613s-0.321-1.395-0.321-2.242 s0.107-1.593,0.321-2.235s0.511-1.178,0.889-1.606s0.82-0.754,1.326-0.978s1.06-0.335,1.661-0.335s1.155,0.111,1.661,0.335 s0.948,0.549,1.326,0.978s0.675,0.964,0.889,1.606S38.568,47.066,38.568,47.914z M34.33,51.729c0.337,0,0.658-0.066,0.964-0.198 s0.579-0.349,0.82-0.649s0.431-0.695,0.567-1.183s0.209-1.082,0.219-1.784c-0.01-0.684-0.08-1.265-0.212-1.743 s-0.314-0.873-0.547-1.183s-0.497-0.533-0.793-0.67s-0.608-0.205-0.937-0.205c-0.338,0-0.658,0.063-0.964,0.191 s-0.579,0.344-0.82,0.649s-0.431,0.699-0.567,1.183s-0.21,1.075-0.219,1.777c0.009,0.684,0.08,1.267,0.212,1.75 s0.314,0.877,0.547,1.183s0.497,0.528,0.793,0.67S34.002,51.729,34.33,51.729z"/></g><circle style="fill:#c8bdb8" cx="27.5" cy="21" r="12"/><circle style="fill:#e9e9e0" cx="27.5" cy="21" r="3"/><path style="fill:#d3ccc9" d="M25.379,18.879c0.132-0.132,0.276-0.245,0.425-0.347l-2.361-8.813 c-1.615,0.579-3.134,1.503-4.427,2.796c-1.294,1.293-2.217,2.812-2.796,4.427l8.813,2.361 C25.134,19.155,25.247,19.011,25.379,18.879z"/><path style="fill:#d3ccc9" d="M30.071,23.486l2.273,8.483c1.32-0.582,2.56-1.402,3.641-2.484c1.253-1.253,2.16-2.717,2.743-4.275 l-8.188-2.194C30.255,22.939,29.994,23.2,30.071,23.486z"/></g></svg>