<?xml version="1.0" encoding="iso-8859-1"?><!DOCTYPE svg PUBLIC "-//W3C//DTD SVG 1.1//EN" "http://www.w3.org/Graphics/SVG/1.1/DTD/svg11.dtd"><svg version="1.1" xmlns="http://www.w3.org/2000/svg" xmlns:xlink="http://www.w3.org/1999/xlink" x="0px" y="0px" viewBox="0 0 56 56" style="enable-background:new 0 0 56 56" xml:space="preserve"><g><path style="fill:#e9e9e0" d="M36.985,0H7.963C7.155,0,6.5,0.655,6.5,1.926V55c0,0.345,0.655,1,1.463,1h40.074 c0.808,0,1.463-0.655,1.463-1V12.978c0-0.696-0.093-0.92-0.257-1.085L37.607,0.257C37.442,0.093,37.218,0,36.985,0z"/><polygon style="fill:#d9d7ca" points="37.5,0.151 37.5,12 49.349,12"/><path style="fill:#9777a8" d="M48.037,56H7.963C7.155,56,6.5,55.345,6.5,54.537V39h43v15.537C49.5,55.345,48.845,56,48.037,56z"/><g><path style="fill:#fff" d="M17.021,42.719v7.848c0,0.474-0.087,0.873-0.26,1.196s-0.405,0.583-0.697,0.779 s-0.627,0.333-1.005,0.41c-0.378,0.077-0.768,0.116-1.169,0.116c-0.2,0-0.436-0.021-0.704-0.062s-0.547-0.104-0.834-0.191 s-0.563-0.185-0.827-0.294s-0.487-0.232-0.67-0.369l0.697-1.107c0.091,0.063,0.221,0.13,0.39,0.198s0.354,0.132,0.554,0.191 s0.41,0.111,0.629,0.157s0.424,0.068,0.615,0.068c0.483,0,0.868-0.094,1.155-0.28s0.439-0.504,0.458-0.95v-7.711H17.021z"/><path style="fill:#fff" d="M25.184,50.238c0,0.364-0.075,0.718-0.226,1.06s-0.362,0.643-0.636,0.902s-0.61,0.467-1.012,0.622 s-0.856,0.232-1.367,0.232c-0.219,0-0.444-0.012-0.677-0.034s-0.467-0.062-0.704-0.116c-0.237-0.055-0.463-0.13-0.677-0.226 s-0.398-0.212-0.554-0.349l0.287-1.176c0.128,0.073,0.289,0.144,0.485,0.212s0.398,0.132,0.608,0.191s0.419,0.107,0.629,0.144 s0.405,0.055,0.588,0.055c0.556,0,0.982-0.13,1.278-0.39s0.444-0.645,0.444-1.155c0-0.31-0.104-0.574-0.314-0.793 s-0.472-0.417-0.786-0.595s-0.654-0.355-1.019-0.533s-0.706-0.388-1.025-0.629s-0.583-0.526-0.793-0.854s-0.314-0.738-0.314-1.23 c0-0.446,0.082-0.843,0.246-1.189s0.385-0.641,0.663-0.882s0.602-0.426,0.971-0.554s0.759-0.191,1.169-0.191 c0.419,0,0.843,0.039,1.271,0.116s0.774,0.203,1.039,0.376c-0.055,0.118-0.118,0.248-0.191,0.39s-0.142,0.273-0.205,0.396 s-0.118,0.226-0.164,0.308s-0.073,0.128-0.082,0.137c-0.055-0.027-0.116-0.063-0.185-0.109s-0.166-0.091-0.294-0.137 s-0.296-0.077-0.506-0.096s-0.479-0.014-0.807,0.014c-0.183,0.019-0.355,0.07-0.52,0.157s-0.31,0.193-0.438,0.321 s-0.228,0.271-0.301,0.431s-0.109,0.313-0.109,0.458c0,0.364,0.104,0.658,0.314,0.882s0.47,0.419,0.779,0.588 s0.647,0.333,1.012,0.492s0.704,0.354,1.019,0.581s0.576,0.513,0.786,0.854S25.184,49.7,25.184,50.238z"/><path style="fill:#fff" d="M35.082,47.914c0,0.848-0.107,1.595-0.321,2.242s-0.511,1.185-0.889,1.613s-0.82,0.752-1.326,0.971 s-1.06,0.328-1.661,0.328s-1.155-0.109-1.661-0.328s-0.948-0.542-1.326-0.971s-0.675-0.966-0.889-1.613s-0.321-1.395-0.321-2.242 s0.107-1.593,0.321-2.235s0.511-1.178,0.889-1.606s0.82-0.754,1.326-0.978s1.06-0.335,1.661-0.335s1.155,0.111,1.661,0.335 s0.948,0.549,1.326,0.978s0.675,0.964,0.889,1.606S35.082,47.066,35.082,47.914z M30.844,51.729c0.337,0,0.658-0.066,0.964-0.198 s0.579-0.349,0.82-0.649s0.431-0.695,0.567-1.183s0.21-1.082,0.219-1.784c-0.009-0.684-0.08-1.265-0.212-1.743 s-0.314-0.873-0.547-1.183s-0.497-0.533-0.793-0.67s-0.608-0.205-0.937-0.205c-0.337,0-0.658,0.063-0.964,0.191 s-0.579,0.344-0.82,0.649s-0.431,0.699-0.567,1.183c-0.137,0.483-0.21,1.075-0.219,1.777c0.009,0.684,0.08,1.267,0.212,1.75 s0.314,0.877,0.547,1.183s0.497,0.528,0.793,0.67S30.516,51.729,30.844,51.729z"/><path style="fill:#fff" d="M44.68,42.924V53h-1.668l-3.951-6.945V53h-1.668V42.924h1.668l3.951,6.945v-6.945H44.68z"/></g><g><path style="fill:#9777a8" d="M19.5,19v-4c0-0.551,0.448-1,1-1c0.553,0,1-0.448,1-1s-0.447-1-1-1c-1.654,0-3,1.346-3,3v4 c0,1.103-0.897,2-2,2c-0.553,0-1,0.448-1,1s0.447,1,1,1c1.103,0,2,0.897,2,2v4c0,1.654,1.346,3,3,3c0.553,0,1-0.448,1-1 s-0.447-1-1-1c-0.552,0-1-0.449-1-1v-4c0-1.2-0.542-2.266-1.382-3C18.958,21.266,19.5,20.2,19.5,19z"/><circle style="fill:#9777a8" cx="27.5" cy="18.5" r="1.5"/><path style="fill:#9777a8" d="M39.5,21c-1.103,0-2-0.897-2-2v-4c0-1.654-1.346-3-3-3c-0.553,0-1,0.448-1,1s0.447,1,1,1 c0.552,0,1,0.449,1,1v4c0,1.2,0.542,2.266,1.382,3c-0.84,0.734-1.382,1.8-1.382,3v4c0,0.551-0.448,1-1,1c-0.553,0-1,0.448-1,1 s0.447,1,1,1c1.654,0,3-1.346,3-3v-4c0-1.103,0.897-2,2-2c0.553,0,1-0.448,1-1S40.053,21,39.5,21z"/><path style="fill:#9777a8" d="M27.5,24c-0.553,0-1,0.448-1,1v3c0,0.552,0.447,1,1,1s1-0.448,1-1v-3 C28.5,24.448,28.053,24,27.5,24z"/></g></g></svg>