<?xml version="1.0" encoding="UTF-8" standalone="no"?><svg xmlns:dc="http://purl.org/dc/elements/1.1/" xmlns:cc="http://creativecommons.org/ns#" xmlns:rdf="http://www.w3.org/1999/02/22-rdf-syntax-ns#" xmlns:svg="http://www.w3.org/2000/svg" xmlns="http://www.w3.org/2000/svg" version="1.1" x="0px" y="0px" viewBox="0 0 56 56" style="enable-background:new 0 0 56 56" xml:space="preserve"><g><path style="fill:#e9e9e0" d="M36.985,0H7.963C7.155,0,6.5,0.655,6.5,1.926V55c0,0.345,0.655,1,1.463,1h40.074 c0.808,0,1.463-0.655,1.463-1V12.978c0-0.696-0.093-0.92-0.257-1.085L37.607,0.257C37.442,0.093,37.218,0,36.985,0z"/><polygon style="fill:#d9d7ca" points="37.5,0.151 37.5,12 49.349,12"/><path style="fill:#9777a8;fill-opacity:1" d="M48.037,56H7.963C7.155,56,6.5,55.345,6.5,54.537V39h43v15.537C49.5,55.345,48.845,56,48.037,56z"/><path style="fill:#c8bdb8" d="M35.67,14.986c-0.567-0.796-1.3-1.543-2.308-2.351c-3.914-3.131-4.757-6.277-4.862-6.738V5 c0-0.553-0.447-1-1-1s-1,0.447-1,1v1v8.359v9.053h-3.706c-3.882,0-6.294,1.961-6.294,5.117c0,3.466,2.24,5.706,5.706,5.706 c3.471,0,6.294-2.823,6.294-6.294V16.468l0.298,0.243c0.34,0.336,0.861,0.72,1.521,1.205c2.318,1.709,6.2,4.567,5.224,7.793 C35.514,25.807,35.5,25.904,35.5,26c0,0.43,0.278,0.826,0.71,0.957C36.307,26.986,36.404,27,36.5,27c0.43,0,0.826-0.278,0.957-0.71 C39.084,20.915,37.035,16.9,35.67,14.986z M26.5,27.941c0,2.368-1.926,4.294-4.294,4.294c-2.355,0-3.706-1.351-3.706-3.706 c0-2.576,2.335-3.117,4.294-3.117H26.5V27.941z M31.505,16.308c-0.571-0.422-1.065-0.785-1.371-1.081l-1.634-1.34v-3.473 c0.827,1.174,1.987,2.483,3.612,3.783c0.858,0.688,1.472,1.308,1.929,1.95c0.716,1.003,1.431,2.339,1.788,3.978 C34.502,18.515,32.745,17.221,31.505,16.308z"/></g><g style="font-style:normal;font-variant:normal;font-weight:400;font-stretch:normal;font-size:13.75px;font-family:Allerta;-inkscape-font-specification:Allerta;fill:#fff;fill-opacity:1"><path d="m 22.581909,42.585449 1.638184,0 0,9.89624 -1.638184,0 0,-6.807861 -2.215576,5.505371 -1.42334,0 -2.229004,-5.505371 0,6.807861 -1.638183,0 0,-9.89624 1.638183,0 2.940674,6.767578 2.927246,-6.767578 z" style=""/><path d="m 28.302124,52.481689 -1.611328,0 0,-9.89624 2.84668,0 q 0.631103,0 1.248779,0.201416 0.617676,0.201416 1.101074,0.604248 0.496826,0.402832 0.792236,0.980225 0.308838,0.563965 0.308838,1.275635 0,0.751953 -0.255127,1.369629 -0.255127,0.604248 -0.71167,1.020507 -0.456543,0.41626 -1.101074,0.644532 -0.644531,0.228271 -1.42334,0.228271 l -1.195068,0 0,3.571777 z m 0,-8.674316 0,3.920898 1.477051,0 q 0.29541,0 0.577392,-0.09399 0.295411,-0.107422 0.53711,-0.335693 0.241699,-0.228272 0.389404,-0.631104 0.147705,-0.416259 0.147705,-1.020507 0,-0.2417 -0.06714,-0.550537 -0.06714,-0.322266 -0.281982,-0.604249 -0.201416,-0.29541 -0.577393,-0.483398 -0.375976,-0.201416 -0.993652,-0.201416 l -1.208496,0 z" style=""/><path d="m 40.776489,45.526123 q 0,0.523682 -0.228271,1.087647 -0.228272,0.550537 -0.604248,1.101074 -0.375977,0.537109 -0.83252,1.047363 -0.443115,0.510254 -0.899658,0.966797 -0.443115,0.456543 -0.845947,0.832519 -0.389405,0.362549 -0.644532,0.617676 l 4.202881,0 0,1.30249 -6.149902,0 0,-1.503906 q 0.241699,-0.214844 0.671387,-0.577392 0.429687,-0.375977 0.926513,-0.83252 0.496827,-0.456543 0.993653,-0.966797 0.496826,-0.523681 0.899658,-1.047363 0.41626,-0.537109 0.671387,-1.047363 0.268554,-0.510254 0.268554,-0.966797 0,-0.469971 -0.17456,-0.778809 -0.161133,-0.322265 -0.41626,-0.523681 -0.255127,-0.201416 -0.563965,-0.281983 -0.29541,-0.08057 -0.563965,-0.08057 -0.523681,0 -0.872802,0.04028 -0.335694,0.02686 -0.590821,0.09399 -0.255127,0.05371 -0.456543,0.161133 -0.201416,0.107422 -0.429687,0.241699 L 34.66687,43.417969 q 0.241699,-0.214844 0.59082,-0.389405 0.362549,-0.17456 0.738526,-0.281982 0.389404,-0.107422 0.765381,-0.161133 0.375976,-0.06714 0.698242,-0.06714 0.872803,0 1.490478,0.281982 0.631104,0.281982 1.033936,0.725098 0.402832,0.429687 0.59082,0.966796 0.201416,0.53711 0.201416,1.033936 z" style=""/></g></svg>