<?xml version="1.0" encoding="UTF-8" standalone="no"?><svg xmlns:dc="http://purl.org/dc/elements/1.1/" xmlns:cc="http://creativecommons.org/ns#" xmlns:rdf="http://www.w3.org/1999/02/22-rdf-syntax-ns#" xmlns:svg="http://www.w3.org/2000/svg" xmlns="http://www.w3.org/2000/svg" version="1.1" x="0px" y="0px" viewBox="0 0 56 56" style="enable-background:new 0 0 56 56" xml:space="preserve"><g><path style="fill:#e9e9e0" d="M36.985,0H7.963C7.155,0,6.5,0.655,6.5,1.926V55c0,0.345,0.655,1,1.463,1h40.074 c0.808,0,1.463-0.655,1.463-1V12.978c0-0.696-0.093-0.92-0.257-1.085L37.607,0.257C37.442,0.093,37.218,0,36.985,0z"/><path style="fill:#95a5a5;fill-opacity:1" d="M48.037,56H7.963C7.155,56,6.5,55.345,6.5,54.537V39h43v15.537C49.5,55.345,48.845,56,48.037,56z"/><path style="fill:#c8bdb8" d="M24.5,28c-0.166,0-0.331-0.041-0.481-0.123C23.699,27.701,23.5,27.365,23.5,27V13 c0-0.365,0.199-0.701,0.519-0.877c0.321-0.175,0.71-0.162,1.019,0.033l11,7C36.325,19.34,36.5,19.658,36.5,20 s-0.175,0.66-0.463,0.844l-11,7C24.874,27.947,24.687,28,24.5,28z M25.5,14.821v10.357L33.637,20L25.5,14.821z"/><path style="fill:#c8bdb8" d="M28.5,35c-8.271,0-15-6.729-15-15s6.729-15,15-15s15,6.729,15,15S36.771,35,28.5,35z M28.5,7 c-7.168,0-13,5.832-13,13s5.832,13,13,13s13-5.832,13-13S35.668,7,28.5,7z"/><polygon style="fill:#d9d7ca" points="37.5,0.151 37.5,12 49.349,12"/></g><g style="font-style:normal;font-variant:normal;font-weight:400;font-stretch:normal;font-size:13.75px;font-family:Allerta;-inkscape-font-specification:Allerta;fill:#fff;fill-opacity:1"><path d="m 21.863525,42.55188 1.638184,0 0,9.89624 -1.638184,0 0,-6.807861 -2.215576,5.505371 -1.42334,0 -2.229004,-5.505371 0,6.807861 -1.638183,0 0,-9.89624 1.638183,0 2.940674,6.767578 2.927246,-6.767578 z" style=""/><path d="m 30.524414,47.640991 2.510986,4.807129 -1.866455,0 -1.571045,-3.73291 -0.134277,0 -1.691894,3.73291 -1.866456,0 2.510987,-4.807129 -2.672119,-5.089111 1.839599,0 1.745606,4.02832 0.134277,0 1.893311,-4.02832 1.839599,0 -2.672119,5.089111 z" style=""/><path d="m 37.090576,43.773804 0,3.115234 4.135742,0 0,1.101074 -4.135742,0 0,4.458008 -1.638183,0 0,-9.89624 6.190185,0 0,1.221924 -4.552002,0 z" style=""/></g></svg>