<?xml version="1.0" encoding="iso-8859-1"?><!DOCTYPE svg PUBLIC "-//W3C//DTD SVG 1.1//EN" "http://www.w3.org/Graphics/SVG/1.1/DTD/svg11.dtd"><svg version="1.1" xmlns="http://www.w3.org/2000/svg" xmlns:xlink="http://www.w3.org/1999/xlink" x="0px" y="0px" viewBox="0 0 56 56" style="enable-background:new 0 0 56 56" xml:space="preserve"><g><path style="fill:#e9e9e0" d="M36.985,0H7.963C7.155,0,6.5,0.655,6.5,1.926V55c0,0.345,0.655,1,1.463,1h40.074 c0.808,0,1.463-0.655,1.463-1V12.978c0-0.696-0.093-0.92-0.257-1.085L37.607,0.257C37.442,0.093,37.218,0,36.985,0z"/><polygon style="fill:#d9d7ca" points="37.5,0.151 37.5,12 49.349,12"/><path style="fill:#f6712e" d="M48.037,56H7.963C7.155,56,6.5,55.345,6.5,54.537V39h43v15.537C49.5,55.345,48.845,56,48.037,56z"/><g><path style="fill:#fff" d="M17.581,53H15.94V42.924h2.898c0.428,0,0.852,0.068,1.271,0.205 c0.419,0.137,0.795,0.342,1.128,0.615c0.333,0.273,0.602,0.604,0.807,0.991s0.308,0.822,0.308,1.306 c0,0.511-0.087,0.973-0.26,1.388c-0.173,0.415-0.415,0.764-0.725,1.046c-0.31,0.282-0.684,0.501-1.121,0.656 s-0.921,0.232-1.449,0.232h-1.217V53z M17.581,44.168v3.992h1.504c0.2,0,0.398-0.034,0.595-0.103 c0.196-0.068,0.376-0.18,0.54-0.335s0.296-0.371,0.396-0.649c0.1-0.278,0.15-0.622,0.15-1.032c0-0.164-0.023-0.354-0.068-0.567 c-0.046-0.214-0.139-0.419-0.28-0.615c-0.142-0.196-0.34-0.36-0.595-0.492c-0.255-0.132-0.593-0.198-1.012-0.198H17.581z"/><path style="fill:#fff" d="M25.853,53h-1.641V42.924h2.898c0.428,0,0.852,0.068,1.271,0.205 c0.419,0.137,0.795,0.342,1.128,0.615c0.333,0.273,0.602,0.604,0.807,0.991s0.308,0.822,0.308,1.306 c0,0.511-0.087,0.973-0.26,1.388c-0.173,0.415-0.415,0.764-0.725,1.046c-0.31,0.282-0.684,0.501-1.121,0.656 s-0.921,0.232-1.449,0.232h-1.217V53z M25.853,44.168v3.992h1.504c0.2,0,0.398-0.034,0.595-0.103 c0.196-0.068,0.376-0.18,0.54-0.335s0.296-0.371,0.396-0.649c0.1-0.278,0.15-0.622,0.15-1.032c0-0.164-0.023-0.354-0.068-0.567 c-0.046-0.214-0.139-0.419-0.28-0.615c-0.142-0.196-0.34-0.36-0.595-0.492c-0.255-0.132-0.593-0.198-1.012-0.198H25.853z"/><path style="fill:#fff" d="M39.606,42.924v1.121h-3.008V53h-1.654v-8.955h-3.008v-1.121H39.606z"/></g><path style="fill:#c8bdb8" d="M39.5,30h-24V14h24V30z M17.5,28h20V16h-20V28z"/><path style="fill:#c8bdb8" d="M20.499,35c-0.175,0-0.353-0.046-0.514-0.143c-0.474-0.284-0.627-0.898-0.343-1.372l3-5 c0.284-0.474,0.898-0.627,1.372-0.343c0.474,0.284,0.627,0.898,0.343,1.372l-3,5C21.17,34.827,20.839,35,20.499,35z"/><path style="fill:#c8bdb8" d="M34.501,35c-0.34,0-0.671-0.173-0.858-0.485l-3-5c-0.284-0.474-0.131-1.088,0.343-1.372 c0.474-0.283,1.088-0.131,1.372,0.343l3,5c0.284,0.474,0.131,1.088-0.343,1.372C34.854,34.954,34.676,35,34.501,35z"/><path style="fill:#c8bdb8" d="M27.5,16c-0.552,0-1-0.447-1-1v-3c0-0.553,0.448-1,1-1s1,0.447,1,1v3C28.5,15.553,28.052,16,27.5,16 z"/><rect x="17.5" y="16" style="fill:#d3ccc9" width="20" height="12"/></g></svg>