<?xml version="1.0" encoding="iso-8859-1"?><!DOCTYPE svg PUBLIC "-//W3C//DTD SVG 1.1//EN" "http://www.w3.org/Graphics/SVG/1.1/DTD/svg11.dtd"><svg version="1.1" xmlns="http://www.w3.org/2000/svg" xmlns:xlink="http://www.w3.org/1999/xlink" x="0px" y="0px" viewBox="0 0 56 56" style="enable-background:new 0 0 56 56" xml:space="preserve"><g><path style="fill:#e9e9e0" d="M36.985,0H7.963C7.155,0,6.5,0.655,6.5,1.926V55c0,0.345,0.655,1,1.463,1h40.074 c0.808,0,1.463-0.655,1.463-1V12.978c0-0.696-0.093-0.92-0.257-1.085L37.607,0.257C37.442,0.093,37.218,0,36.985,0z"/><polygon style="fill:#d9d7ca" points="37.5,0.151 37.5,12 49.349,12"/><path style="fill:#90bae1" d="M48.037,56H7.963C7.155,56,6.5,55.345,6.5,54.537V39h43v15.537C49.5,55.345,48.845,56,48.037,56z"/><g><path style="fill:#fff" d="M20.83,53l-1.9-3.65c-0.027,0-0.064,0.002-0.109,0.007c-0.046,0.005-0.116,0.007-0.212,0.007 s-0.241,0-0.438,0s-0.463,0-0.8,0V53H15.73V42.924h2.898c0.428,0,0.852,0.068,1.271,0.205c0.419,0.137,0.795,0.342,1.128,0.615 s0.602,0.604,0.807,0.991s0.308,0.822,0.308,1.306c0,0.729-0.169,1.349-0.506,1.859c-0.338,0.511-0.793,0.889-1.367,1.135 L22.566,53H20.83z M17.371,48.16h1.49c0.2,0,0.4-0.034,0.602-0.103c0.2-0.068,0.383-0.18,0.547-0.335s0.296-0.371,0.396-0.649 c0.1-0.278,0.15-0.622,0.15-1.032c0-0.164-0.023-0.354-0.068-0.567c-0.046-0.214-0.139-0.419-0.28-0.615s-0.34-0.36-0.595-0.492 c-0.256-0.132-0.593-0.198-1.012-0.198h-1.23V48.16z"/><path style="fill:#fff" d="M31.891,42.924v1.121h-3.008V53h-1.654v-8.955h-3.008v-1.121H31.891z"/><path style="fill:#fff" d="M35.555,44.168v3.172h4.211v1.121h-4.211V53h-1.668V42.924h6.303v1.244H35.555z"/></g><g><path style="fill:#c8bdb8" d="M12.5,13h6c0.553,0,1-0.448,1-1s-0.447-1-1-1h-6c-0.553,0-1,0.448-1,1S11.947,13,12.5,13z"/><path style="fill:#c8bdb8" d="M12.5,18h9c0.553,0,1-0.448,1-1s-0.447-1-1-1h-9c-0.553,0-1,0.448-1,1S11.947,18,12.5,18z"/><path style="fill:#c8bdb8" d="M25.5,18c0.26,0,0.52-0.11,0.71-0.29c0.18-0.19,0.29-0.45,0.29-0.71c0-0.26-0.11-0.52-0.29-0.71 c-0.38-0.37-1.04-0.37-1.42,0c-0.181,0.19-0.29,0.44-0.29,0.71s0.109,0.52,0.29,0.71C24.979,17.89,25.24,18,25.5,18z"/><path style="fill:#c8bdb8" d="M29.5,18h8c0.553,0,1-0.448,1-1s-0.447-1-1-1h-8c-0.553,0-1,0.448-1,1S28.947,18,29.5,18z"/><path style="fill:#c8bdb8" d="M11.79,31.29c-0.181,0.19-0.29,0.44-0.29,0.71s0.109,0.52,0.29,0.71 C11.979,32.89,12.229,33,12.5,33c0.27,0,0.52-0.11,0.71-0.29c0.18-0.19,0.29-0.45,0.29-0.71c0-0.26-0.11-0.52-0.29-0.71 C12.84,30.92,12.16,30.92,11.79,31.29z"/><path style="fill:#c8bdb8" d="M24.5,31h-8c-0.553,0-1,0.448-1,1s0.447,1,1,1h8c0.553,0,1-0.448,1-1S25.053,31,24.5,31z"/><path style="fill:#c8bdb8" d="M41.5,18h2c0.553,0,1-0.448,1-1s-0.447-1-1-1h-2c-0.553,0-1,0.448-1,1S40.947,18,41.5,18z"/><path style="fill:#c8bdb8" d="M12.5,23h22c0.553,0,1-0.448,1-1s-0.447-1-1-1h-22c-0.553,0-1,0.448-1,1S11.947,23,12.5,23z"/><path style="fill:#c8bdb8" d="M43.5,21h-6c-0.553,0-1,0.448-1,1s0.447,1,1,1h6c0.553,0,1-0.448,1-1S44.053,21,43.5,21z"/><path style="fill:#c8bdb8" d="M12.5,28h4c0.553,0,1-0.448,1-1s-0.447-1-1-1h-4c-0.553,0-1,0.448-1,1S11.947,28,12.5,28z"/><path style="fill:#c8bdb8" d="M30.5,26h-10c-0.553,0-1,0.448-1,1s0.447,1,1,1h10c0.553,0,1-0.448,1-1S31.053,26,30.5,26z"/><path style="fill:#c8bdb8" d="M43.5,26h-9c-0.553,0-1,0.448-1,1s0.447,1,1,1h9c0.553,0,1-0.448,1-1S44.053,26,43.5,26z"/></g></g></svg>