<?xml version="1.0" encoding="UTF-8" standalone="no"?><svg xmlns:dc="http://purl.org/dc/elements/1.1/" xmlns:cc="http://creativecommons.org/ns#" xmlns:rdf="http://www.w3.org/1999/02/22-rdf-syntax-ns#" xmlns:svg="http://www.w3.org/2000/svg" xmlns="http://www.w3.org/2000/svg" version="1.1" x="0px" y="0px" viewBox="0 0 56 56" style="enable-background:new 0 0 56 56" xml:space="preserve"><g><path style="fill:#e9e9e0" d="M36.985,0H7.963C7.155,0,6.5,0.655,6.5,1.926V55c0,0.345,0.655,1,1.463,1h40.074 c0.808,0,1.463-0.655,1.463-1V12.978c0-0.696-0.093-0.92-0.257-1.085L37.607,0.257C37.442,0.093,37.218,0,36.985,0z"/><path style="fill:#556080;fill-opacity:1" d="M48.037,56H7.963C7.155,56,6.5,55.345,6.5,54.537V39h43v15.537C49.5,55.345,48.845,56,48.037,56z"/><polygon style="fill:#d9d7ca" points="37.5,0.151 37.5,12 49.349,12"/><circle style="fill:#f3d55b" cx="18.931" cy="14.431" r="4.569"/><polygon style="fill:#8d97b3;fill-opacity:1" points="6.5,39 17.5,39 49.5,39 49.5,28 39.5,18.5 29,30 23.517,24.517"/></g><g transform="scale(0.99005755,1.0100423)" style="font-style:normal;font-variant:normal;font-weight:400;font-stretch:normal;font-size:13.88808155px;font-family:Allerta;-inkscape-font-specification:Allerta;fill:#fff;fill-opacity:1"><path d="m 21.859303,42.442173 0,1.112131 -2.983768,0 0,8.88349 -1.641072,0 0,-8.88349 -2.983768,0 0,-1.112131 7.608608,0 z" style="fill:#fff"/><path d="m 25.494074,52.437794 -1.654634,0 0,-9.995621 1.654634,0 0,9.995621 z" style="fill:#fff"/><path d="m 29.684912,43.676367 0,3.146519 4.177274,0 0,1.112131 -4.177274,0 0,4.502777 -1.654635,0 0,-9.995621 6.252349,0 0,1.234194 -4.597714,0 z" style="fill:#fff"/><path d="m 37.71396,43.676367 0,3.146519 4.177274,0 0,1.112131 -4.177274,0 0,4.502777 -1.654635,0 0,-9.995621 6.252349,0 0,1.234194 -4.597714,0 z" style="fill:#fff"/></g></svg>