<?xml version="1.0" encoding="iso-8859-1"?><!DOCTYPE svg PUBLIC "-//W3C//DTD SVG 1.1//EN" "http://www.w3.org/Graphics/SVG/1.1/DTD/svg11.dtd"><svg version="1.1" xmlns="http://www.w3.org/2000/svg" xmlns:xlink="http://www.w3.org/1999/xlink" x="0px" y="0px" viewBox="0 0 56 56" style="enable-background:new 0 0 56 56" xml:space="preserve"><g><path style="fill:#e9e9e0" d="M36.985,0H7.963C7.155,0,6.5,0.655,6.5,1.926V55c0,0.345,0.655,1,1.463,1h40.074 c0.808,0,1.463-0.655,1.463-1V12.978c0-0.696-0.093-0.92-0.257-1.085L37.607,0.257C37.442,0.093,37.218,0,36.985,0z"/><polygon style="fill:#d9d7ca" points="37.5,0.151 37.5,12 49.349,12"/><path style="fill:#95a5a5" d="M48.037,56H7.963C7.155,56,6.5,55.345,6.5,54.537V39h43v15.537C49.5,55.345,48.845,56,48.037,56z"/><g><path style="fill:#fff" d="M21.867,42.924v1.121h-3.008V53h-1.654v-8.955h-3.008v-1.121H21.867z"/><path style="fill:#fff" d="M28.443,48.105L31,53h-1.9l-1.6-3.801h-0.137L25.641,53h-1.9l2.557-4.895l-2.721-5.182h1.873 l1.777,4.102h0.137l1.928-4.102h1.873L28.443,48.105z"/><path style="fill:#fff" d="M40.529,42.924v1.121h-3.008V53h-1.654v-8.955h-3.008v-1.121H40.529z"/></g><path style="fill:#c8bdb8" d="M18.5,13h-6c-0.553,0-1-0.448-1-1s0.447-1,1-1h6c0.553,0,1,0.448,1,1S19.053,13,18.5,13z"/><path style="fill:#c8bdb8" d="M21.5,18h-9c-0.553,0-1-0.448-1-1s0.447-1,1-1h9c0.553,0,1,0.448,1,1S22.053,18,21.5,18z"/><path style="fill:#c8bdb8" d="M25.5,18c-0.26,0-0.521-0.11-0.71-0.29c-0.181-0.19-0.29-0.44-0.29-0.71s0.109-0.52,0.3-0.71 c0.36-0.37,1.04-0.37,1.41,0c0.18,0.19,0.29,0.45,0.29,0.71c0,0.26-0.11,0.52-0.29,0.71C26.02,17.89,25.76,18,25.5,18z"/><path style="fill:#c8bdb8" d="M37.5,18h-8c-0.553,0-1-0.448-1-1s0.447-1,1-1h8c0.553,0,1,0.448,1,1S38.053,18,37.5,18z"/><path style="fill:#c8bdb8" d="M12.5,33c-0.26,0-0.521-0.11-0.71-0.29c-0.181-0.19-0.29-0.45-0.29-0.71 c0-0.26,0.109-0.52,0.29-0.71c0.37-0.37,1.05-0.37,1.42,0.01c0.18,0.18,0.29,0.44,0.29,0.7c0,0.26-0.11,0.52-0.29,0.71 C13.02,32.89,12.76,33,12.5,33z"/><path style="fill:#c8bdb8" d="M24.5,33h-8c-0.553,0-1-0.448-1-1s0.447-1,1-1h8c0.553,0,1,0.448,1,1S25.053,33,24.5,33z"/><path style="fill:#c8bdb8" d="M43.5,18h-2c-0.553,0-1-0.448-1-1s0.447-1,1-1h2c0.553,0,1,0.448,1,1S44.053,18,43.5,18z"/><path style="fill:#c8bdb8" d="M34.5,23h-22c-0.553,0-1-0.448-1-1s0.447-1,1-1h22c0.553,0,1,0.448,1,1S35.053,23,34.5,23z"/><path style="fill:#c8bdb8" d="M43.5,23h-6c-0.553,0-1-0.448-1-1s0.447-1,1-1h6c0.553,0,1,0.448,1,1S44.053,23,43.5,23z"/><path style="fill:#c8bdb8" d="M16.5,28h-4c-0.553,0-1-0.448-1-1s0.447-1,1-1h4c0.553,0,1,0.448,1,1S17.053,28,16.5,28z"/><path style="fill:#c8bdb8" d="M30.5,28h-10c-0.553,0-1-0.448-1-1s0.447-1,1-1h10c0.553,0,1,0.448,1,1S31.053,28,30.5,28z"/><path style="fill:#c8bdb8" d="M43.5,28h-9c-0.553,0-1-0.448-1-1s0.447-1,1-1h9c0.553,0,1,0.448,1,1S44.053,28,43.5,28z"/></g></svg>