<svg viewBox="0 -16 512 512" xmlns="http://www.w3.org/2000/svg"><path d="m158.578125 399.609375c27.753906 13.148437 62.351563 20.390625 97.421875 20.390625s69.667969-7.242188 97.421875-20.390625l-12.84375-27.113281c-23.824219 11.289062-53.859375 17.503906-84.578125 17.503906s-60.753906-6.214844-84.578125-17.503906zm0 0"/><path d="m31.960938 293.085938c-1.292969 7.203124-1.960938 14.515624-1.960938 21.914062 0 45.019531 24.265625 87.03125 68.328125 118.300781 42.4375 30.113281 98.433594 46.699219 157.671875 46.699219s115.234375-16.585938 157.671875-46.699219c44.0625-31.269531 68.328125-73.28125 68.328125-118.300781 0-7.398438-.667969-14.710938-1.960938-21.914062 19.359376-10.164063 31.960938-30.320313 31.960938-53.085938 0-33.085938-26.914062-60-60-60-15.082031 0-29.292969 5.589844-40.175781 15.421875-39.355469-27.316406-90.023438-43.175781-144.023438-45.195313l28.664063-111.175781 65.578125 22.691407c.929687 32.28125 27.457031 58.257812 59.957031 58.257812 33.085938 0 60-26.914062 60-60s-26.914062-60-60-60c-23.109375 0-43.191406 13.140625-53.214844 32.332031l-93.25-32.2656248-38.8125 150.5351558c-51.1875 3.144532-99.015625 18.765626-136.546875 44.820313-10.882812-9.832031-25.09375-15.421875-40.175781-15.421875-33.085938 0-60 26.914062-60 60 0 22.765625 12.601562 42.921875 31.960938 53.085938zm390.039062-263.085938c16.542969 0 30 13.457031 30 30s-13.457031 30-30 30-30-13.457031-30-30 13.457031-30 30-30zm60 210c0 9.367188-4.273438 17.835938-11.167969 23.378906-7.816406-17.46875-19.625-33.855468-35.105469-48.582031 4.773438-3.085937 10.386719-4.796875 16.273438-4.796875 16.542969 0 30 13.457031 30 30zm-226-60c53.070312 0 102.902344 14.621094 140.3125 41.167969 35.910156 25.480469 55.6875 58.804687 55.6875 93.832031s-19.777344 68.351562-55.6875 93.832031c-37.410156 26.546875-87.242188 41.167969-140.3125 41.167969s-102.902344-14.621094-140.3125-41.167969c-35.910156-25.480469-55.6875-58.804687-55.6875-93.832031s19.777344-68.351562 55.6875-93.832031c37.410156-26.546875 87.242188-41.167969 140.3125-41.167969zm-196 30c5.886719 0 11.5 1.710938 16.273438 4.796875-15.480469 14.726563-27.289063 31.113281-35.105469 48.582031-6.894531-5.542968-11.167969-14.011718-11.167969-23.378906 0-16.542969 13.457031-30 30-30zm0 0"/><path d="m165 330c24.8125 0 45-20.1875 45-45s-20.1875-45-45-45-45 20.1875-45 45 20.1875 45 45 45zm0-60c8.269531 0 15 6.730469 15 15s-6.730469 15-15 15-15-6.730469-15-15 6.730469-15 15-15zm0 0"/><path d="m347 330c24.8125 0 45-20.1875 45-45s-20.1875-45-45-45-45 20.1875-45 45 20.1875 45 45 45zm0-60c8.269531 0 15 6.730469 15 15s-6.730469 15-15 15-15-6.730469-15-15 6.730469-15 15-15zm0 0"/></svg>