<?xml version="1.0"?>
<svg xmlns="http://www.w3.org/2000/svg" xmlns:xlink="http://www.w3.org/1999/xlink" xmlns:svgjs="http://svgjs.com/svgjs" version="1.1" width="512" height="512" x="0" y="0" viewBox="0 0 448.457 448.457" style="enable-background:new 0 0 512 512" xml:space="preserve" class=""><g>
<path xmlns="http://www.w3.org/2000/svg" style="" d="M328.718,75.592h31.347l0,0l6.792-41.273c1.045-6.269-1.045-12.539-4.702-16.718  c-4.18-4.702-9.927-7.314-15.673-7.314H102.498c-6.269,0-12.016,2.612-15.673,7.314c-4.18,4.702-5.747,10.971-4.702,16.718  l6.792,41.273h31.347H328.718z" fill="#6b87a2" data-original="#00bbd3" class=""/>
<path xmlns="http://www.w3.org/2000/svg" style="" d="M407.086,139.331l6.792-42.318c1.045-6.269-1.045-12.539-4.702-16.718  c-4.18-4.702-9.927-7.314-15.673-7.314h-33.437l0,0h-31.347H120.261H88.914h-0.522H56c-6.269,0-12.016,2.612-15.673,7.314  c-4.18,4.702-5.747,10.971-4.702,16.718l6.792,42.318H407.086L407.086,139.331z" fill="#8e9fb8" data-original="#d4e1f4" class=""/>
<path xmlns="http://www.w3.org/2000/svg" style="" d="M443.657,144.033c-4.18-4.702-9.927-7.314-16.196-7.314h-20.375l0,0H42.416h-0.522H20.996  c-6.269,0-12.016,2.612-16.196,7.314c-3.657,4.18-5.224,9.927-4.702,15.673l24.033,250.253v0.522  c2.09,15.673,15.673,27.69,31.347,27.69H392.98c16.718,0,30.302-12.539,31.347-28.212l24.033-250.253  C448.882,154.482,447.314,148.735,443.657,144.033z" fill="#8aaac8" data-original="#4dcfe0" class=""/>
<path xmlns="http://www.w3.org/2000/svg" style="" d="M290.057,235.461H158.4c-8.882,0-15.673,6.792-15.673,15.673c0,8.882,6.792,15.673,15.673,15.673  h131.657c8.882,0,15.673-6.792,15.673-15.673C305.731,242.253,298.939,235.461,290.057,235.461z" fill="#6b87a2" data-original="#00bbd3" class=""/>
<g xmlns="http://www.w3.org/2000/svg">
</g>
<g xmlns="http://www.w3.org/2000/svg">
</g>
<g xmlns="http://www.w3.org/2000/svg">
</g>
<g xmlns="http://www.w3.org/2000/svg">
</g>
<g xmlns="http://www.w3.org/2000/svg">
</g>
<g xmlns="http://www.w3.org/2000/svg">
</g>
<g xmlns="http://www.w3.org/2000/svg">
</g>
<g xmlns="http://www.w3.org/2000/svg">
</g>
<g xmlns="http://www.w3.org/2000/svg">
</g>
<g xmlns="http://www.w3.org/2000/svg">
</g>
<g xmlns="http://www.w3.org/2000/svg">
</g>
<g xmlns="http://www.w3.org/2000/svg">
</g>
<g xmlns="http://www.w3.org/2000/svg">
</g>
<g xmlns="http://www.w3.org/2000/svg">
</g>
<g xmlns="http://www.w3.org/2000/svg">
</g>
</g></svg>
