<?xml version="1.0"?>
<svg xmlns="http://www.w3.org/2000/svg" xmlns:xlink="http://www.w3.org/1999/xlink" xmlns:svgjs="http://svgjs.com/svgjs" version="1.1" width="512" height="512" x="0" y="0" viewBox="0 0 497.47 497.47" style="enable-background:new 0 0 512 512" xml:space="preserve" class=""><g>
<g xmlns="http://www.w3.org/2000/svg">
	<path style="" d="M104.589,154.626l140.539-66.351h-39.706l-60.082-51.2c-2.612-2.612-6.269-3.657-9.927-3.657H36.67   c-8.882,0-15.673,6.792-15.673,15.673v105.535C20.997,154.626,104.589,154.626,104.589,154.626z" fill="#009bf5" data-original="#00bbd3" class=""/>
	<path style="" d="M433.732,154.626h42.841v-50.678c0-8.882-6.792-15.673-15.673-15.673h-58.514L433.732,154.626z" fill="#009bf5" data-original="#00bbd3" class=""/>
</g>
<path xmlns="http://www.w3.org/2000/svg" style="" d="M383.054,40.732c-4.18-8.882-15.151-13.061-24.555-8.359L93.095,157.761h344.816L383.054,40.732z" fill="#d4e1f4" data-original="#d4e1f4" class=""/>
<path xmlns="http://www.w3.org/2000/svg" style="" d="M493.291,156.716c-3.135-3.135-7.314-4.702-11.494-4.702h-5.224h-42.841H104.589H20.997h-5.224  c-4.18,0-8.359,1.567-11.494,4.702c-3.135,3.135-4.702,7.314-4.18,11.494l15.673,284.212c0.522,8.359,7.314,14.629,15.673,14.629  h434.678c8.359,0,15.151-6.269,15.673-14.629L497.47,168.21C497.47,164.03,495.903,159.85,493.291,156.716z" fill="#007af5" data-original="#4dcfe0" class=""/>
<g xmlns="http://www.w3.org/2000/svg">
</g>
<g xmlns="http://www.w3.org/2000/svg">
</g>
<g xmlns="http://www.w3.org/2000/svg">
</g>
<g xmlns="http://www.w3.org/2000/svg">
</g>
<g xmlns="http://www.w3.org/2000/svg">
</g>
<g xmlns="http://www.w3.org/2000/svg">
</g>
<g xmlns="http://www.w3.org/2000/svg">
</g>
<g xmlns="http://www.w3.org/2000/svg">
</g>
<g xmlns="http://www.w3.org/2000/svg">
</g>
<g xmlns="http://www.w3.org/2000/svg">
</g>
<g xmlns="http://www.w3.org/2000/svg">
</g>
<g xmlns="http://www.w3.org/2000/svg">
</g>
<g xmlns="http://www.w3.org/2000/svg">
</g>
<g xmlns="http://www.w3.org/2000/svg">
</g>
<g xmlns="http://www.w3.org/2000/svg">
</g>
</g></svg>
